<svg width="28" height="28" viewBox="0 0 28 28" fill="none" xmlns="http://www.w3.org/2000/svg">
<circle cx="14" cy="14" r="14" fill="#FFF3CD"/>
<path d="M14 17.5133L16.7673 19.1836C17.2722 19.4883 17.895 19.0357 17.761 18.4614L17.0267 15.3133L19.4724 13.1946C19.9181 12.8085 19.6798 12.0763 19.0922 12.0264L15.8733 11.7533L14.6138 8.78159C14.3841 8.23957 13.6159 8.23957 13.3862 8.78159L12.1267 11.7533L8.90774 12.0264C8.32012 12.0763 8.08185 12.8085 8.52758 13.1946L10.9733 15.3133L10.2389 18.4614C10.105 19.0357 10.7278 19.4883 11.2327 19.1836L14 17.5133Z" fill="url(#paint0_linear)"/>
<defs>
<linearGradient id="paint0_linear" x1="8.2965" y1="13.8283" x2="19.7035" y2="13.8283" gradientUnits="userSpaceOnUse">
<stop stop-color="#FFCD39"/>
<stop offset="1" stop-color="#FAAC15"/>
</linearGradient>
</defs>
</svg>
