<svg width="209" height="144" viewBox="0 0 209 144" fill="none" xmlns="http://www.w3.org/2000/svg">
<g clip-path="url(#clip0)">
<path opacity="0.1" d="M118.013 19.6042C104.639 19.6221 91.7667 15.832 79.4541 11.6216C67.1415 7.41115 54.9237 2.69635 41.7988 0.698457C33.3578 -0.585772 23.7593 -0.467723 17.1611 4.19521C10.8098 8.68107 8.97055 16.1056 8.08316 22.965C7.41582 28.1252 7.1081 33.5411 9.60747 38.2613C11.3429 41.538 14.3128 44.2388 16.4061 47.3618C23.7128 58.2258 19.3187 72.1037 12.2178 83.22C8.88825 88.4356 4.98801 93.4348 2.47074 98.9491C-0.046533 104.463 -1.07885 110.716 1.48852 116.159C4.03263 121.554 9.77923 125.469 15.9463 128.143C28.47 133.584 43.0512 134.75 57.2406 135.199C88.6501 136.195 120.12 134.163 151.507 132.132C163.122 131.38 174.788 130.624 186.163 128.447C192.479 127.24 198.982 125.448 203.461 121.52C209.145 116.533 210.307 108.391 206.171 102.539C199.235 92.723 180.945 90.8717 175.971 80.2509C173.228 74.4039 175.593 67.6984 179.077 62.0624C186.548 49.9696 199.408 39.1377 199.625 25.6121C199.773 16.3238 193.085 7.26269 183.097 3.22578C172.627 -1.00252 158.352 0.0849609 151.016 7.96562C143.474 16.0842 129.821 19.5917 118.013 19.6042Z" fill="#FFC107"/>
<path d="M177.574 115.43C177.574 115.43 175.375 113.979 173.196 115.011C173.196 115.011 173.867 116.303 176.626 116.181L177.574 115.43Z" fill="#FFC107"/>
<path d="M177.853 115.508C177.853 115.508 178.522 118.055 176.844 119.788C176.844 119.788 175.835 118.738 176.844 116.166L177.853 115.508Z" fill="#FFC107"/>
<path d="M180.587 113.062C180.587 113.062 180.424 110.896 175.531 111.615C175.531 111.615 175.508 113.012 177.225 113.674C178.943 114.335 179.73 113.777 180.587 113.062Z" fill="#FFC107"/>
<path d="M180.895 113.049C180.895 113.049 182.963 113.712 181.118 118.3C181.118 118.3 179.753 117.996 179.508 116.17C179.263 114.344 179.989 113.714 180.895 113.049Z" fill="#FFC107"/>
<path d="M183.657 109.976C183.657 109.976 183.938 106.411 178.937 106.776C178.937 106.776 178.579 109.996 182.775 110.833L183.657 109.976Z" fill="#FFC107"/>
<path d="M186.961 105.951C186.961 105.951 186.276 101.911 181.277 103.115C181.277 103.115 181.259 106.608 186.146 106.914L186.961 105.951Z" fill="#FFC107"/>
<path d="M189.377 101.79C189.377 101.79 188.228 97.8553 183.276 99.0322C183.276 99.0322 184.455 102.572 189.048 102.516L189.377 101.79Z" fill="#FFC107"/>
<path d="M191.671 97.7266C191.671 97.7266 190.549 93.6432 185.767 94.8648C185.767 94.8648 187.362 98.7443 191.354 98.417L191.671 97.7266Z" fill="#FFC107"/>
<path d="M193.148 93.8665C193.148 93.8665 192.286 88.8727 187.828 89.9781C187.828 89.9781 189.123 94.5212 192.821 94.5945L193.148 93.8665Z" fill="#FFC107"/>
<path d="M194.535 89.2029C194.535 89.2029 193.499 84.1697 188.988 85.6257C188.988 85.6257 190.756 90.3834 194.214 89.8915L194.535 89.2029Z" fill="#FFC107"/>
<path d="M195.386 84.8646C195.386 84.8646 193.742 79.8297 190.255 79.9656C190.255 79.9656 191.935 85.2832 195.094 85.868L195.386 84.8646Z" fill="#FFC107"/>
<path d="M195.938 80.6284C195.938 80.6284 194.149 74.5686 191.311 75.0354C191.311 75.0354 192.549 79.668 195.837 81.5728L195.938 80.6284Z" fill="#FFC107"/>
<path d="M196.249 75.5756C196.249 75.5756 194.57 70.5263 191.776 70.3242C191.776 70.3242 192.917 75.293 196.193 76.8885L196.249 75.5756Z" fill="#FFC107"/>
<path d="M196.587 70.8625C196.587 70.8625 194.495 65.8078 192.651 65.6934C192.651 65.6934 193.56 70.6711 196.408 71.6924L196.587 70.8625Z" fill="#FFC107"/>
<path d="M196.818 66.4747C196.818 66.4747 195.531 60.9854 193.683 60.5293C193.683 60.5293 193.935 65.0205 196.632 66.8861L196.818 66.4747Z" fill="#FFC107"/>
<path d="M197.515 60.7314C197.515 60.7314 196.163 56.3547 194.665 55.6875C194.665 55.6875 194.96 60.8477 197.17 61.801L197.515 60.7314Z" fill="#FFC107"/>
<path d="M198.093 56.9739L198.365 49.2578C198.365 49.2578 195.565 55.0744 197.891 58.3279L198.093 56.9739Z" fill="#FFC107"/>
<path d="M200.254 49.3005C200.254 49.3005 202.271 43.6664 202.759 43.3516C202.759 43.3516 198.805 47.0075 199.192 51.7098L200.254 49.3005Z" fill="#FFC107"/>
<path d="M183.793 109.949C183.793 109.949 187.339 109.486 187.233 114.495C187.233 114.495 184.029 115.018 182.982 110.874L183.793 109.949Z" fill="#FFC107"/>
<path d="M187.13 105.814C187.13 105.814 191.227 105.802 190.887 110.93C190.887 110.93 187.446 111.545 186.312 106.784L187.13 105.814Z" fill="#FFC107"/>
<path d="M189.416 102.121C189.416 102.121 193.136 100.377 195.515 104.879C195.515 104.879 192.08 106.332 189.087 102.849L189.416 102.121Z" fill="#FFC107"/>
<path d="M191.752 97.7654C191.752 97.7654 195.561 95.9106 197.798 100.307C197.798 100.307 193.83 101.674 191.438 98.4612L191.752 97.7654Z" fill="#FFC107"/>
<path d="M193.1 93.9757C193.1 93.9757 196.766 90.4754 199.691 94.0151C199.691 94.0151 195.946 96.8966 192.932 94.7556L193.1 93.9757Z" fill="#FFC107"/>
<path d="M194.327 89.0832C194.327 89.0832 198.015 85.506 200.917 89.2478C200.917 89.2478 196.778 92.1865 194.195 89.8345L194.327 89.0832Z" fill="#FFC107"/>
<path d="M195.016 84.7203C195.016 84.7203 197.857 80.2488 201.203 81.2468C201.203 81.2468 198.254 85.9813 195.048 85.7703L195.016 84.7203Z" fill="#FFC107"/>
<path d="M195.853 80.6009C195.853 80.6009 198.716 74.9704 201.424 75.9505C201.424 75.9505 199.36 80.279 195.78 81.5507L195.853 80.6009Z" fill="#FFC107"/>
<path d="M196.052 75.2838C196.052 75.2838 198.995 70.8516 201.752 71.3936C201.752 71.3936 199.346 75.8884 195.766 76.5663L196.052 75.2838Z" fill="#FFC107"/>
<path d="M196.281 70.762C196.281 70.762 198.562 65.7879 200.415 65.7539C200.415 65.7539 199.32 70.6923 196.435 71.6063L196.281 70.762Z" fill="#FFC107"/>
<path d="M196.728 66.3678C196.728 66.3678 199.263 61.331 201.169 61.3203C201.169 61.3203 199.871 65.6273 196.812 66.8096L196.728 66.3678Z" fill="#FFC107"/>
<path d="M197.109 61.0459C197.109 61.0459 199.006 56.8784 200.577 56.4062C200.577 56.4062 199.628 61.4859 197.319 62.1513L197.109 61.0459Z" fill="#FFC107"/>
<path d="M198.318 56.8223L202.557 50.3672C202.557 50.3672 201.471 56.7347 197.699 58.0583L198.318 56.8223Z" fill="#FFC107"/>
<path d="M201.228 49.8205C201.228 49.8205 206.153 46.4222 206.332 45.873C206.332 45.873 203.827 50.6326 199.176 51.4732L201.228 49.8205Z" fill="#FFC107"/>
<path d="M201.523 48.2916C201.523 48.2916 207.178 42.856 208.622 42.8613C208.622 42.8613 203.958 43.0742 201.387 48.0018L201.523 48.2916Z" fill="#FFC107"/>
<path d="M197.165 61.8522L197.37 61.879C198.433 53.5638 199.982 48.6433 201.732 48.0405L201.664 47.8438C199.809 48.4877 198.249 53.333 197.165 61.8522Z" fill="#444053"/>
<path d="M195.601 81.7393L195.912 81.7643C195.979 80.9881 196.029 80.1939 196.063 79.4015C196.36 72.5189 196.819 66.198 197.424 61.4599L197.245 61.2363C196.639 65.9851 196.048 72.4957 195.751 79.389C195.717 80.176 195.667 80.9666 195.601 81.7393Z" fill="#444053"/>
<path d="M171.77 119.398C171.824 119.374 177.304 116.928 182.991 111.093C186.324 107.676 189.093 103.752 191.195 99.4671C193.825 94.1138 195.428 87.5353 195.964 81.1445L195.64 81.2966C194.433 95.6413 187.901 105.443 182.707 110.782C177.075 116.565 171.656 118.986 171.602 119.01L171.77 119.398Z" fill="#444053"/>
<path d="M185.96 15.2441H14.0481C13.6419 15.2441 13.2524 15.4054 12.9652 15.6926C12.678 15.9797 12.5166 16.3691 12.5166 16.7752V21.236H187.491V16.7752C187.491 16.3691 187.33 15.9797 187.042 15.6926C186.755 15.4054 186.366 15.2441 185.96 15.2441Z" fill="#3F3D56"/>
<path d="M12.5166 21.2363V121.621C12.5166 122.44 12.8419 123.225 13.4211 123.804C14.0002 124.383 14.7856 124.708 15.6046 124.708H184.403C185.222 124.708 186.007 124.383 186.587 123.804C187.166 123.225 187.491 122.44 187.491 121.621V21.2363H12.5166Z" fill="white"/>
<path opacity="0.8" d="M15.2879 18.9114C15.6831 18.9114 16.0035 18.5911 16.0035 18.1959C16.0035 17.8008 15.6831 17.4805 15.2879 17.4805C14.8927 17.4805 14.5723 17.8008 14.5723 18.1959C14.5723 18.5911 14.8927 18.9114 15.2879 18.9114Z" fill="#FA5959"/>
<path opacity="0.8" d="M17.2557 18.9114C17.6509 18.9114 17.9713 18.5911 17.9713 18.1959C17.9713 17.8008 17.6509 17.4805 17.2557 17.4805C16.8604 17.4805 16.54 17.8008 16.54 18.1959C16.54 18.5911 16.8604 18.9114 17.2557 18.9114Z" fill="#FED253"/>
<path opacity="0.8" d="M19.2239 18.9114C19.6192 18.9114 19.9396 18.5911 19.9396 18.1959C19.9396 17.8008 19.6192 17.4805 19.2239 17.4805C18.8287 17.4805 18.5083 17.8008 18.5083 18.1959C18.5083 18.5911 18.8287 18.9114 19.2239 18.9114Z" fill="#8CCF4D"/>
<path opacity="0.05" d="M169.405 37.9727H28.7812V99.7909H169.405V37.9727Z" fill="black"/>
<path d="M168.332 38.4414H29.855V98.8968H168.332V38.4414Z" fill="#3F3D56"/>
<path d="M67.6047 54.002C64.8801 54.002 62.2166 54.8097 59.9511 56.323C57.6857 57.8363 55.9199 59.9873 54.8773 62.5039C53.8346 65.0204 53.5618 67.7896 54.0933 70.4612C54.6249 73.1328 55.9369 75.5868 57.8635 77.5129C59.7902 79.439 62.2448 80.7506 64.9171 81.2821C67.5894 81.8135 70.3594 81.5407 72.8766 80.4983C75.3939 79.4559 77.5454 77.6907 79.0591 75.4258C80.5729 73.161 81.3808 70.4982 81.3808 67.7743C81.3808 65.9657 81.0245 64.1748 80.3322 62.5039C79.6399 60.8329 78.6251 59.3147 77.3459 58.0358C76.0667 56.7569 74.548 55.7424 72.8766 55.0503C71.2052 54.3582 69.4138 54.002 67.6047 54.002ZM70.0755 68.1052V74.6265H65.2055V68.1052C64.5316 67.5952 64.0349 66.8865 63.7856 66.0791C63.5363 65.2717 63.5469 64.4064 63.816 63.6054C64.085 62.8043 64.5989 62.108 65.2852 61.6147C65.9714 61.1214 66.7953 60.856 67.6405 60.856C68.4857 60.856 69.3096 61.1214 69.9958 61.6147C70.6821 62.108 71.196 62.8043 71.4651 63.6054C71.7341 64.4064 71.7447 65.2717 71.4954 66.0791C71.2461 66.8865 70.7494 67.5952 70.0755 68.1052Z" fill="#FFC107"/>
<path opacity="0.05" d="M67.6047 54.002C64.8801 54.002 62.2166 54.8097 59.9511 56.323C57.6857 57.8363 55.9199 59.9873 54.8773 62.5039C53.8346 65.0204 53.5618 67.7896 54.0933 70.4612C54.6249 73.1328 55.9369 75.5868 57.8635 77.5129C59.7902 79.439 62.2448 80.7506 64.9171 81.2821C67.5894 81.8135 70.3594 81.5407 72.8766 80.4983C75.3939 79.4559 77.5454 77.6907 79.0591 75.4258C80.5729 73.161 81.3808 70.4982 81.3808 67.7743C81.3808 65.9657 81.0245 64.1748 80.3322 62.5039C79.6399 60.8329 78.6251 59.3147 77.3459 58.0358C76.0667 56.7569 74.548 55.7424 72.8766 55.0503C71.2052 54.3582 69.4138 54.002 67.6047 54.002ZM70.0755 68.1052V74.6265H65.2055V68.1052C64.5316 67.5952 64.0349 66.8865 63.7856 66.0791C63.5363 65.2717 63.5469 64.4064 63.816 63.6054C64.085 62.8043 64.5989 62.108 65.2852 61.6147C65.9714 61.1214 66.7953 60.856 67.6405 60.856C68.4857 60.856 69.3096 61.1214 69.9958 61.6147C70.6821 62.108 71.196 62.8043 71.4651 63.6054C71.7341 64.4064 71.7447 65.2717 71.4954 66.0791C71.2461 66.8865 70.7494 67.5952 70.0755 68.1052Z" fill="black"/>
<path d="M67.6047 50.0684C64.1016 50.0684 60.6771 51.1069 57.7644 53.0526C54.8516 54.9983 52.5814 57.7638 51.2408 60.9994C49.9003 64.235 49.5495 67.7953 50.2329 71.2302C50.9163 74.6651 52.6033 77.8203 55.0804 80.2967C57.5574 82.7731 60.7134 84.4595 64.1493 85.1428C67.5851 85.826 71.1464 85.4754 74.3829 84.1351C77.6193 82.7949 80.3856 80.5253 82.3318 77.6134C84.2781 74.7014 85.3169 71.2779 85.3169 67.7757C85.3169 63.0794 83.4508 58.5755 80.1291 55.2547C76.8074 51.9339 72.3023 50.0684 67.6047 50.0684ZM70.7804 68.2014V76.5847H64.5185V68.2014C63.6517 67.5456 63.0128 66.6342 62.6921 65.5958C62.3713 64.5575 62.3849 63.4446 62.7309 62.4144C63.0768 61.3841 63.7377 60.4886 64.6203 59.8541C65.5028 59.2196 66.5624 58.8783 67.6494 58.8783C68.7365 58.8783 69.7961 59.2196 70.6786 59.8541C71.5612 60.4886 72.2221 61.3841 72.568 62.4144C72.914 63.4446 72.9276 64.5575 72.6068 65.5958C72.2861 66.6342 71.6472 67.5456 70.7804 68.2014Z" fill="#FFC107"/>
<path d="M149.904 65.4512H92.6523V71.5325H149.904V65.4512Z" fill="white"/>
<path d="M149.904 76.541H137.559V82.6223H149.904V76.541Z" fill="#FFC107"/>
<path d="M98.2881 68.4005H97.2522L98.1735 67.4811C98.1901 67.4641 98.1993 67.4413 98.1993 67.4176C98.1993 67.3939 98.1901 67.3711 98.1735 67.3541C98.1652 67.3457 98.1553 67.3391 98.1444 67.3346C98.1335 67.33 98.1218 67.3277 98.11 67.3277C98.0982 67.3277 98.0865 67.33 98.0756 67.3346C98.0647 67.3391 98.0548 67.3457 98.0465 67.3541L97.1251 68.2753V67.2379C97.1251 67.2141 97.1157 67.1914 97.0989 67.1746C97.0822 67.1579 97.0594 67.1484 97.0357 67.1484C97.0121 67.1489 96.9896 67.1585 96.9729 67.1751C96.9562 67.1918 96.9467 67.2143 96.9462 67.2379V68.2753L96.0266 67.3488C96.0183 67.3404 96.0084 67.3337 95.9975 67.3292C95.9866 67.3246 95.9749 67.3223 95.9631 67.3223C95.9513 67.3223 95.9396 67.3246 95.9287 67.3292C95.9178 67.3337 95.9079 67.3404 95.8996 67.3488C95.8831 67.3658 95.8739 67.3886 95.8739 67.4123C95.8739 67.436 95.8831 67.4587 95.8996 67.4758L96.821 68.3951H95.7833C95.7597 68.3956 95.7372 68.4051 95.7205 68.4218C95.7039 68.4385 95.6943 68.461 95.6938 68.4845C95.6938 68.5083 95.7033 68.531 95.72 68.5478C95.7368 68.5645 95.7596 68.574 95.7833 68.574H96.821L95.8996 69.4951C95.8831 69.5121 95.8739 69.5349 95.8739 69.5586C95.8739 69.5823 95.8831 69.6051 95.8996 69.6221C95.9168 69.6382 95.9395 69.6471 95.9631 69.6471C95.9867 69.6471 96.0094 69.6382 96.0266 69.6221L96.9462 68.701V69.7366C96.9462 69.7603 96.9556 69.783 96.9724 69.7998C96.9892 69.8166 97.012 69.826 97.0357 69.826C97.0594 69.826 97.0822 69.8166 97.0989 69.7998C97.1157 69.783 97.1251 69.7603 97.1251 69.7366V68.701L98.0465 69.6221C98.0637 69.6382 98.0864 69.6471 98.11 69.6471C98.1336 69.6471 98.1563 69.6382 98.1735 69.6221C98.1901 69.6051 98.1993 69.5823 98.1993 69.5586C98.1993 69.5349 98.1901 69.5121 98.1735 69.4951L97.2522 68.574H98.2881C98.3118 68.574 98.3345 68.5645 98.3513 68.5478C98.3681 68.531 98.3775 68.5083 98.3775 68.4845C98.3761 68.4618 98.3661 68.4404 98.3495 68.4247C98.3328 68.4091 98.3109 68.4004 98.2881 68.4005Z" fill="#FFC107"/>
<path d="M102.045 68.4005H101.009L101.931 67.4811C101.947 67.4641 101.957 67.4413 101.957 67.4176C101.957 67.3939 101.947 67.3711 101.931 67.3541C101.923 67.3457 101.913 67.3391 101.902 67.3346C101.891 67.33 101.879 67.3277 101.867 67.3277C101.856 67.3277 101.844 67.33 101.833 67.3346C101.822 67.3391 101.812 67.3457 101.804 67.3541L100.882 68.2753V67.2379C100.882 67.2141 100.873 67.1914 100.856 67.1746C100.839 67.1579 100.817 67.1484 100.793 67.1484C100.769 67.1489 100.747 67.1585 100.73 67.1751C100.714 67.1918 100.704 67.2143 100.704 67.2379V68.2753L99.7839 67.3488C99.7756 67.3404 99.7657 67.3337 99.7548 67.3292C99.7439 67.3246 99.7322 67.3223 99.7204 67.3223C99.7086 67.3223 99.6969 67.3246 99.686 67.3292C99.6751 67.3337 99.6652 67.3404 99.6569 67.3488C99.6404 67.3658 99.6312 67.3886 99.6312 67.4123C99.6312 67.436 99.6404 67.4587 99.6569 67.4758L100.578 68.3951H99.5406C99.517 68.3956 99.4945 68.4051 99.4779 68.4218C99.4612 68.4385 99.4516 68.461 99.4512 68.4845C99.4512 68.5083 99.4606 68.531 99.4774 68.5478C99.4941 68.5645 99.5169 68.574 99.5406 68.574H100.578L99.6569 69.4951C99.6404 69.5121 99.6312 69.5349 99.6312 69.5586C99.6312 69.5823 99.6404 69.6051 99.6569 69.6221C99.6741 69.6382 99.6968 69.6471 99.7204 69.6471C99.744 69.6471 99.7667 69.6382 99.7839 69.6221L100.704 68.701V69.7366C100.704 69.7603 100.713 69.783 100.73 69.7998C100.747 69.8166 100.769 69.826 100.793 69.826C100.817 69.826 100.839 69.8166 100.856 69.7998C100.873 69.783 100.882 69.7603 100.882 69.7366V68.701L101.804 69.6221C101.821 69.6382 101.844 69.6471 101.867 69.6471C101.891 69.6471 101.914 69.6382 101.931 69.6221C101.947 69.6051 101.957 69.5823 101.957 69.5586C101.957 69.5349 101.947 69.5121 101.931 69.4951L101.009 68.574H102.045C102.069 68.574 102.092 68.5645 102.109 68.5478C102.125 68.531 102.135 68.5083 102.135 68.4845C102.133 68.4618 102.123 68.4404 102.107 68.4247C102.09 68.4091 102.068 68.4004 102.045 68.4005Z" fill="#FFC107"/>
<path d="M105.802 68.4005H104.766L105.688 67.4811C105.704 67.4641 105.713 67.4413 105.713 67.4176C105.713 67.3939 105.704 67.3711 105.688 67.3541C105.679 67.3457 105.67 67.3391 105.659 67.3346C105.648 67.33 105.636 67.3277 105.624 67.3277C105.612 67.3277 105.601 67.33 105.59 67.3346C105.579 67.3391 105.569 67.3457 105.561 67.3541L104.639 68.2753V67.2379C104.639 67.2141 104.63 67.1914 104.613 67.1746C104.596 67.1579 104.574 67.1484 104.55 67.1484C104.526 67.1489 104.504 67.1585 104.487 67.1751C104.47 67.1918 104.461 67.2143 104.46 67.2379V68.2753L103.541 67.3488C103.532 67.3404 103.523 67.3337 103.512 67.3292C103.501 67.3246 103.489 67.3223 103.477 67.3223C103.465 67.3223 103.454 67.3246 103.443 67.3292C103.432 67.3337 103.422 67.3404 103.414 67.3488C103.397 67.3658 103.388 67.3886 103.388 67.4123C103.388 67.436 103.397 67.4587 103.414 67.4758L104.335 68.3951H103.297C103.274 68.3956 103.251 68.4051 103.235 68.4218C103.218 68.4385 103.208 68.461 103.208 68.4845C103.208 68.5083 103.217 68.531 103.234 68.5478C103.251 68.5645 103.274 68.574 103.297 68.574H104.335L103.414 69.4951C103.397 69.5121 103.388 69.5349 103.388 69.5586C103.388 69.5823 103.397 69.6051 103.414 69.6221C103.431 69.6382 103.454 69.6471 103.477 69.6471C103.501 69.6471 103.524 69.6382 103.541 69.6221L104.46 68.701V69.7366C104.46 69.7603 104.47 69.783 104.487 69.7998C104.503 69.8166 104.526 69.826 104.55 69.826C104.574 69.826 104.596 69.8166 104.613 69.7998C104.63 69.783 104.639 69.7603 104.639 69.7366V68.701L105.561 69.6221C105.578 69.6382 105.601 69.6471 105.624 69.6471C105.648 69.6471 105.67 69.6382 105.688 69.6221C105.704 69.6051 105.713 69.5823 105.713 69.5586C105.713 69.5349 105.704 69.5121 105.688 69.4951L104.766 68.574H105.802C105.826 68.574 105.849 68.5645 105.865 68.5478C105.882 68.531 105.892 68.5083 105.892 68.4845C105.89 68.4618 105.88 68.4404 105.864 68.4247C105.847 68.4091 105.825 68.4004 105.802 68.4005Z" fill="#FFC107"/>
<path d="M109.56 68.4005H108.524L109.445 67.4811C109.462 67.4641 109.471 67.4413 109.471 67.4176C109.471 67.3939 109.462 67.3711 109.445 67.3541C109.437 67.3457 109.427 67.3391 109.416 67.3346C109.405 67.33 109.393 67.3277 109.382 67.3277C109.37 67.3277 109.358 67.33 109.347 67.3346C109.336 67.3391 109.326 67.3457 109.318 67.3541L108.397 68.2753V67.2379C108.397 67.2141 108.387 67.1914 108.37 67.1746C108.354 67.1579 108.331 67.1484 108.307 67.1484C108.284 67.1489 108.261 67.1585 108.244 67.1751C108.228 67.1918 108.218 67.2143 108.218 67.2379V68.2753L107.298 67.3488C107.29 67.3404 107.28 67.3337 107.269 67.3292C107.258 67.3246 107.246 67.3223 107.235 67.3223C107.223 67.3223 107.211 67.3246 107.2 67.3292C107.189 67.3337 107.179 67.3404 107.171 67.3488C107.155 67.3658 107.145 67.3886 107.145 67.4123C107.145 67.436 107.155 67.4587 107.171 67.4758L108.092 68.3951H107.055C107.031 68.3956 107.009 68.4051 106.992 68.4218C106.975 68.4385 106.966 68.461 106.965 68.4845C106.965 68.5083 106.975 68.531 106.992 68.5478C107.008 68.5645 107.031 68.574 107.055 68.574H108.092L107.171 69.4951C107.155 69.5121 107.145 69.5349 107.145 69.5586C107.145 69.5823 107.155 69.6051 107.171 69.6221C107.188 69.6382 107.211 69.6471 107.235 69.6471C107.258 69.6471 107.281 69.6382 107.298 69.6221L108.218 68.701V69.7366C108.218 69.7603 108.227 69.783 108.244 69.7998C108.261 69.8166 108.283 69.826 108.307 69.826C108.331 69.826 108.354 69.8166 108.37 69.7998C108.387 69.783 108.397 69.7603 108.397 69.7366V68.701L109.318 69.6221C109.335 69.6382 109.358 69.6471 109.382 69.6471C109.405 69.6471 109.428 69.6382 109.445 69.6221C109.462 69.6051 109.471 69.5823 109.471 69.5586C109.471 69.5349 109.462 69.5121 109.445 69.4951L108.524 68.574H109.56C109.583 68.574 109.606 68.5645 109.623 68.5478C109.64 68.531 109.649 68.5083 109.649 68.4845C109.648 68.4618 109.638 68.4404 109.621 68.4247C109.604 68.4091 109.582 68.4004 109.56 68.4005Z" fill="#FFC107"/>
<path d="M113.316 68.4005H112.28L113.202 67.4811C113.218 67.4641 113.228 67.4413 113.228 67.4176C113.228 67.3939 113.218 67.3711 113.202 67.3541C113.194 67.3457 113.184 67.3391 113.173 67.3346C113.162 67.33 113.15 67.3277 113.138 67.3277C113.127 67.3277 113.115 67.33 113.104 67.3346C113.093 67.3391 113.083 67.3457 113.075 67.3541L112.153 68.2753V67.2379C112.153 67.2141 112.144 67.1914 112.127 67.1746C112.11 67.1579 112.088 67.1484 112.064 67.1484C112.04 67.1489 112.018 67.1585 112.001 67.1751C111.985 67.1918 111.975 67.2143 111.975 67.2379V68.2753L111.055 67.3488C111.047 67.3404 111.037 67.3337 111.026 67.3292C111.015 67.3246 111.003 67.3223 110.991 67.3223C110.98 67.3223 110.968 67.3246 110.957 67.3292C110.946 67.3337 110.936 67.3404 110.928 67.3488C110.911 67.3658 110.902 67.3886 110.902 67.4123C110.902 67.436 110.911 67.4587 110.928 67.4758L111.849 68.3951H110.812C110.788 68.3956 110.766 68.4051 110.749 68.4218C110.732 68.4385 110.723 68.461 110.722 68.4845C110.722 68.5083 110.732 68.531 110.748 68.5478C110.765 68.5645 110.788 68.574 110.812 68.574H111.849L110.928 69.4951C110.911 69.5121 110.902 69.5349 110.902 69.5586C110.902 69.5823 110.911 69.6051 110.928 69.6221C110.945 69.6382 110.968 69.6471 110.991 69.6471C111.015 69.6471 111.038 69.6382 111.055 69.6221L111.975 68.701V69.7366C111.975 69.7603 111.984 69.783 112.001 69.7998C112.017 69.8166 112.04 69.826 112.064 69.826C112.088 69.826 112.11 69.8166 112.127 69.7998C112.144 69.783 112.153 69.7603 112.153 69.7366V68.701L113.075 69.6221C113.092 69.6382 113.115 69.6471 113.138 69.6471C113.162 69.6471 113.185 69.6382 113.202 69.6221C113.218 69.6051 113.228 69.5823 113.228 69.5586C113.228 69.5349 113.218 69.5121 113.202 69.4951L112.28 68.574H113.316C113.34 68.574 113.363 68.5645 113.38 68.5478C113.396 68.531 113.406 68.5083 113.406 68.4845C113.404 68.4618 113.394 68.4404 113.378 68.4247C113.361 68.4091 113.339 68.4004 113.316 68.4005Z" fill="#FFC107"/>
<path d="M117.074 68.4005H116.038L116.959 67.4811C116.976 67.4641 116.985 67.4413 116.985 67.4176C116.985 67.3939 116.976 67.3711 116.959 67.3541C116.951 67.3457 116.941 67.3391 116.93 67.3346C116.919 67.33 116.907 67.3277 116.896 67.3277C116.884 67.3277 116.872 67.33 116.861 67.3346C116.85 67.3391 116.84 67.3457 116.832 67.3541L115.911 68.2753V67.2379C115.911 67.2141 115.901 67.1914 115.885 67.1746C115.868 67.1579 115.845 67.1484 115.821 67.1484C115.798 67.1489 115.775 67.1585 115.759 67.1751C115.742 67.1918 115.732 67.2143 115.732 67.2379V68.2753L114.812 67.3488C114.804 67.3404 114.794 67.3337 114.783 67.3292C114.772 67.3246 114.761 67.3223 114.749 67.3223C114.737 67.3223 114.725 67.3246 114.714 67.3292C114.703 67.3337 114.694 67.3404 114.685 67.3488C114.669 67.3658 114.659 67.3886 114.659 67.4123C114.659 67.436 114.669 67.4587 114.685 67.4758L115.607 68.3951H114.569C114.545 68.3956 114.523 68.4051 114.506 68.4218C114.49 68.4385 114.48 68.461 114.479 68.4845C114.479 68.5083 114.489 68.531 114.506 68.5478C114.522 68.5645 114.545 68.574 114.569 68.574H115.607L114.685 69.4951C114.669 69.5121 114.659 69.5349 114.659 69.5586C114.659 69.5823 114.669 69.6051 114.685 69.6221C114.702 69.6382 114.725 69.6471 114.749 69.6471C114.772 69.6471 114.795 69.6382 114.812 69.6221L115.732 68.701V69.7366C115.732 69.7603 115.741 69.783 115.758 69.7998C115.775 69.8166 115.798 69.826 115.821 69.826C115.845 69.826 115.868 69.8166 115.885 69.7998C115.901 69.783 115.911 69.7603 115.911 69.7366V68.701L116.832 69.6221C116.849 69.6382 116.872 69.6471 116.896 69.6471C116.919 69.6471 116.942 69.6382 116.959 69.6221C116.976 69.6051 116.985 69.5823 116.985 69.5586C116.985 69.5349 116.976 69.5121 116.959 69.4951L116.038 68.574H117.074C117.097 68.574 117.12 68.5645 117.137 68.5478C117.154 68.531 117.163 68.5083 117.163 68.4845C117.162 68.4618 117.152 68.4404 117.135 68.4247C117.118 68.4091 117.097 68.4004 117.074 68.4005Z" fill="#FFC107"/>
<path d="M120.831 68.4005H119.795L120.716 67.4811C120.733 67.4641 120.742 67.4413 120.742 67.4176C120.742 67.3939 120.733 67.3711 120.716 67.3541C120.708 67.3457 120.698 67.3391 120.687 67.3346C120.676 67.33 120.664 67.3277 120.653 67.3277C120.641 67.3277 120.629 67.33 120.618 67.3346C120.607 67.3391 120.597 67.3457 120.589 67.3541L119.668 68.2753V67.2379C119.668 67.2141 119.658 67.1914 119.641 67.1746C119.625 67.1579 119.602 67.1484 119.578 67.1484C119.555 67.1489 119.532 67.1585 119.515 67.1751C119.499 67.1918 119.489 67.2143 119.489 67.2379V68.2753L118.569 67.3488C118.561 67.3404 118.551 67.3337 118.54 67.3292C118.529 67.3246 118.517 67.3223 118.506 67.3223C118.494 67.3223 118.482 67.3246 118.471 67.3292C118.46 67.3337 118.45 67.3404 118.442 67.3488C118.426 67.3658 118.416 67.3886 118.416 67.4123C118.416 67.436 118.426 67.4587 118.442 67.4758L119.363 68.3951H118.326C118.302 68.3956 118.28 68.4051 118.263 68.4218C118.246 68.4385 118.237 68.461 118.236 68.4845C118.236 68.5083 118.246 68.531 118.263 68.5478C118.279 68.5645 118.302 68.574 118.326 68.574H119.363L118.442 69.4951C118.426 69.5121 118.416 69.5349 118.416 69.5586C118.416 69.5823 118.426 69.6051 118.442 69.6221C118.459 69.6382 118.482 69.6471 118.506 69.6471C118.529 69.6471 118.552 69.6382 118.569 69.6221L119.489 68.701V69.7366C119.489 69.7603 119.498 69.783 119.515 69.7998C119.532 69.8166 119.554 69.826 119.578 69.826C119.602 69.826 119.625 69.8166 119.641 69.7998C119.658 69.783 119.668 69.7603 119.668 69.7366V68.701L120.589 69.6221C120.606 69.6382 120.629 69.6471 120.653 69.6471C120.676 69.6471 120.699 69.6382 120.716 69.6221C120.733 69.6051 120.742 69.5823 120.742 69.5586C120.742 69.5349 120.733 69.5121 120.716 69.4951L119.795 68.574H120.831C120.854 68.574 120.877 68.5645 120.894 68.5478C120.911 68.531 120.92 68.5083 120.92 68.4845C120.919 68.4618 120.909 68.4404 120.892 68.4247C120.875 68.4091 120.853 68.4004 120.831 68.4005Z" fill="#FFC107"/>
<path d="M124.588 68.4005H123.552L124.473 67.4811C124.49 67.4641 124.499 67.4413 124.499 67.4176C124.499 67.3939 124.49 67.3711 124.473 67.3541C124.465 67.3457 124.455 67.3391 124.444 67.3346C124.433 67.33 124.422 67.3277 124.41 67.3277C124.398 67.3277 124.386 67.33 124.375 67.3346C124.365 67.3391 124.355 67.3457 124.346 67.3541L123.425 68.2753V67.2379C123.425 67.2141 123.416 67.1914 123.399 67.1746C123.382 67.1579 123.359 67.1484 123.335 67.1484C123.312 67.1489 123.289 67.1585 123.273 67.1751C123.256 67.1918 123.247 67.2143 123.246 67.2379V68.2753L122.326 67.3488C122.318 67.3404 122.308 67.3337 122.297 67.3292C122.286 67.3246 122.275 67.3223 122.263 67.3223C122.251 67.3223 122.239 67.3246 122.229 67.3292C122.218 67.3337 122.208 67.3404 122.199 67.3488C122.183 67.3658 122.174 67.3886 122.174 67.4123C122.174 67.436 122.183 67.4587 122.199 67.4758L123.121 68.3951H122.083C122.06 68.3956 122.037 68.4051 122.02 68.4218C122.004 68.4385 121.994 68.461 121.994 68.4845C121.994 68.5083 122.003 68.531 122.02 68.5478C122.037 68.5645 122.059 68.574 122.083 68.574H123.121L122.199 69.4951C122.183 69.5121 122.174 69.5349 122.174 69.5586C122.174 69.5823 122.183 69.6051 122.199 69.6221C122.217 69.6382 122.239 69.6471 122.263 69.6471C122.286 69.6471 122.309 69.6382 122.326 69.6221L123.246 68.701V69.7366C123.246 69.7603 123.255 69.783 123.272 69.7998C123.289 69.8166 123.312 69.826 123.335 69.826C123.359 69.826 123.382 69.8166 123.399 69.7998C123.416 69.783 123.425 69.7603 123.425 69.7366V68.701L124.346 69.6221C124.364 69.6382 124.386 69.6471 124.41 69.6471C124.433 69.6471 124.456 69.6382 124.473 69.6221C124.49 69.6051 124.499 69.5823 124.499 69.5586C124.499 69.5349 124.49 69.5121 124.473 69.4951L123.552 68.574H124.588C124.612 68.574 124.634 68.5645 124.651 68.5478C124.668 68.531 124.677 68.5083 124.677 68.4845C124.676 68.4618 124.666 68.4404 124.649 68.4247C124.633 68.4091 124.611 68.4004 124.588 68.4005Z" fill="#FFC107"/>
<path d="M128.345 68.4005H127.309L128.231 67.4811C128.247 67.4641 128.256 67.4413 128.256 67.4176C128.256 67.3939 128.247 67.3711 128.231 67.3541C128.222 67.3457 128.212 67.3391 128.202 67.3346C128.191 67.33 128.179 67.3277 128.167 67.3277C128.155 67.3277 128.144 67.33 128.133 67.3346C128.122 67.3391 128.112 67.3457 128.104 67.3541L127.182 68.2753V67.2379C127.182 67.2141 127.173 67.1914 127.156 67.1746C127.139 67.1579 127.117 67.1484 127.093 67.1484C127.069 67.1489 127.047 67.1585 127.03 67.1751C127.013 67.1918 127.004 67.2143 127.003 67.2379V68.2753L126.084 67.3488C126.075 67.3404 126.066 67.3337 126.055 67.3292C126.044 67.3246 126.032 67.3223 126.02 67.3223C126.008 67.3223 125.997 67.3246 125.986 67.3292C125.975 67.3337 125.965 67.3404 125.957 67.3488C125.94 67.3658 125.931 67.3886 125.931 67.4123C125.931 67.436 125.94 67.4587 125.957 67.4758L126.878 68.3951H125.84C125.817 68.3956 125.794 68.4051 125.778 68.4218C125.761 68.4385 125.751 68.461 125.751 68.4845C125.751 68.5083 125.76 68.531 125.777 68.5478C125.794 68.5645 125.817 68.574 125.84 68.574H126.878L125.957 69.4951C125.94 69.5121 125.931 69.5349 125.931 69.5586C125.931 69.5823 125.94 69.6051 125.957 69.6221C125.974 69.6382 125.997 69.6471 126.02 69.6471C126.044 69.6471 126.067 69.6382 126.084 69.6221L127.003 68.701V69.7366C127.003 69.7603 127.013 69.783 127.03 69.7998C127.046 69.8166 127.069 69.826 127.093 69.826C127.117 69.826 127.139 69.8166 127.156 69.7998C127.173 69.783 127.182 69.7603 127.182 69.7366V68.701L128.104 69.6221C128.121 69.6382 128.144 69.6471 128.167 69.6471C128.191 69.6471 128.213 69.6382 128.231 69.6221C128.247 69.6051 128.256 69.5823 128.256 69.5586C128.256 69.5349 128.247 69.5121 128.231 69.4951L127.309 68.574H128.345C128.369 68.574 128.392 68.5645 128.408 68.5478C128.425 68.531 128.435 68.5083 128.435 68.4845C128.433 68.4618 128.423 68.4404 128.407 68.4247C128.39 68.4091 128.368 68.4004 128.345 68.4005Z" fill="#FFC107"/>
<path d="M132.102 68.4005H131.066L131.987 67.4811C132.004 67.4641 132.013 67.4413 132.013 67.4176C132.013 67.3939 132.004 67.3711 131.987 67.3541C131.979 67.3457 131.969 67.3391 131.958 67.3346C131.947 67.33 131.936 67.3277 131.924 67.3277C131.912 67.3277 131.9 67.33 131.89 67.3346C131.879 67.3391 131.869 67.3457 131.86 67.3541L130.939 68.2753V67.2379C130.939 67.2141 130.93 67.1914 130.913 67.1746C130.896 67.1579 130.873 67.1484 130.85 67.1484C130.826 67.1489 130.804 67.1585 130.787 67.1751C130.77 67.1918 130.761 67.2143 130.76 67.2379V68.2753L129.841 67.3488C129.832 67.3404 129.822 67.3337 129.811 67.3292C129.801 67.3246 129.789 67.3223 129.777 67.3223C129.765 67.3223 129.754 67.3246 129.743 67.3292C129.732 67.3337 129.722 67.3404 129.714 67.3488C129.697 67.3658 129.688 67.3886 129.688 67.4123C129.688 67.436 129.697 67.4587 129.714 67.4758L130.635 68.3951H129.597C129.574 68.3956 129.551 68.4051 129.535 68.4218C129.518 68.4385 129.508 68.461 129.508 68.4845C129.508 68.5083 129.517 68.531 129.534 68.5478C129.551 68.5645 129.574 68.574 129.597 68.574H130.635L129.714 69.4951C129.697 69.5121 129.688 69.5349 129.688 69.5586C129.688 69.5823 129.697 69.6051 129.714 69.6221C129.731 69.6382 129.753 69.6471 129.777 69.6471C129.801 69.6471 129.823 69.6382 129.841 69.6221L130.76 68.701V69.7366C130.76 69.7603 130.77 69.783 130.786 69.7998C130.803 69.8166 130.826 69.826 130.85 69.826C130.873 69.826 130.896 69.8166 130.913 69.7998C130.93 69.783 130.939 69.7603 130.939 69.7366V68.701L131.86 69.6221C131.878 69.6382 131.9 69.6471 131.924 69.6471C131.948 69.6471 131.97 69.6382 131.987 69.6221C132.004 69.6051 132.013 69.5823 132.013 69.5586C132.013 69.5349 132.004 69.5121 131.987 69.4951L131.066 68.574H132.102C132.126 68.574 132.148 68.5645 132.165 68.5478C132.182 68.531 132.191 68.5083 132.191 68.4845C132.19 68.4618 132.18 68.4404 132.163 68.4247C132.147 68.4091 132.125 68.4004 132.102 68.4005Z" fill="#FFC107"/>
<path d="M135.859 68.4005H134.823L135.745 67.4811C135.761 67.4641 135.771 67.4413 135.771 67.4176C135.771 67.3939 135.761 67.3711 135.745 67.3541C135.736 67.3457 135.727 67.3391 135.716 67.3346C135.705 67.33 135.693 67.3277 135.681 67.3277C135.669 67.3277 135.658 67.33 135.647 67.3346C135.636 67.3391 135.626 67.3457 135.618 67.3541L134.696 68.2753V67.2379C134.696 67.2141 134.687 67.1914 134.67 67.1746C134.653 67.1579 134.631 67.1484 134.607 67.1484C134.583 67.1489 134.561 67.1585 134.544 67.1751C134.528 67.1918 134.518 67.2143 134.517 67.2379V68.2753L133.598 67.3488C133.59 67.3404 133.58 67.3337 133.569 67.3292C133.558 67.3246 133.546 67.3223 133.534 67.3223C133.523 67.3223 133.511 67.3246 133.5 67.3292C133.489 67.3337 133.479 67.3404 133.471 67.3488C133.454 67.3658 133.445 67.3886 133.445 67.4123C133.445 67.436 133.454 67.4587 133.471 67.4758L134.392 68.3951H133.355C133.331 68.3956 133.309 68.4051 133.292 68.4218C133.275 68.4385 133.266 68.461 133.265 68.4845C133.265 68.5083 133.275 68.531 133.291 68.5478C133.308 68.5645 133.331 68.574 133.355 68.574H134.392L133.471 69.4951C133.454 69.5121 133.445 69.5349 133.445 69.5586C133.445 69.5823 133.454 69.6051 133.471 69.6221C133.488 69.6382 133.511 69.6471 133.534 69.6471C133.558 69.6471 133.581 69.6382 133.598 69.6221L134.517 68.701V69.7366C134.517 69.7603 134.527 69.783 134.544 69.7998C134.56 69.8166 134.583 69.826 134.607 69.826C134.631 69.826 134.653 69.8166 134.67 69.7998C134.687 69.783 134.696 69.7603 134.696 69.7366V68.701L135.618 69.6221C135.635 69.6382 135.658 69.6471 135.681 69.6471C135.705 69.6471 135.728 69.6382 135.745 69.6221C135.761 69.6051 135.771 69.5823 135.771 69.5586C135.771 69.5349 135.761 69.5121 135.745 69.4951L134.823 68.574H135.859C135.883 68.574 135.906 68.5645 135.923 68.5478C135.939 68.531 135.949 68.5083 135.949 68.4845C135.947 68.4618 135.937 68.4404 135.921 68.4247C135.904 68.4091 135.882 68.4004 135.859 68.4005Z" fill="#FFC107"/>
<path d="M164.662 90.1594C164.657 89.9432 164.63 89.7281 164.582 89.5173C164.421 88.9127 164.057 88.1812 163.46 87.9988C162.843 87.8099 162.247 87.5582 161.681 87.2475C161.574 85.3301 162.014 83.368 161.535 81.5096C161.356 80.83 161.061 80.1789 160.982 79.4831C160.883 78.6174 161.12 77.6945 160.774 76.8968C160.502 76.2672 159.905 75.8236 159.263 75.5911C158.62 75.3586 157.928 75.296 157.246 75.2334C156.387 75.1636 153.607 74.8345 152.637 75.6018C152.571 75.6537 152.511 75.7138 152.459 75.7807C152.437 75.8102 152.418 75.8413 152.401 75.8737L152.392 75.888C152.373 75.9253 152.357 75.9642 152.344 76.0043C152.331 76.0481 152.32 76.093 152.314 76.1384C152.314 76.1527 152.314 76.167 152.314 76.1813C152.314 76.1956 152.314 76.2439 152.314 76.2761V76.3244C152.314 76.3566 152.314 76.3888 152.314 76.4228C152.314 76.4568 152.314 76.4478 152.314 76.4604C152.326 76.6213 152.349 76.7823 152.349 76.9415C152.351 77.0208 152.344 77.1 152.328 77.1776C152.268 77.3885 152.167 77.5855 152.031 77.7571L151.999 77.8036C151.979 77.8322 151.959 77.8591 151.942 77.8877C151.924 77.9163 151.909 77.9378 151.895 77.9628C151.881 77.9878 151.866 78.0039 151.854 78.0272C151.837 78.0567 151.821 78.0871 151.807 78.1184C151.807 78.1363 151.788 78.1524 151.781 78.1703C151.758 78.2186 151.74 78.2689 151.727 78.3205C151.685 78.4759 151.681 78.6392 151.716 78.7963C151.764 78.9969 151.847 79.1876 151.961 79.3597C152.006 79.433 152.054 79.5046 152.104 79.5761L152.23 79.7461C152.206 79.912 152.194 80.0793 152.192 80.2469C152.192 80.807 152.319 81.3597 152.564 81.8635C152.809 82.3673 153.165 82.8089 153.605 83.1552C153.676 83.9105 153.668 84.6712 153.582 85.4249C153.566 85.5823 153.546 85.7415 153.525 85.8989C153.503 86.0563 153.487 86.1601 153.466 86.2906C153.204 86.3281 152.937 86.308 152.684 86.2316C152.567 86.1795 152.448 86.1335 152.326 86.0939C151.806 85.9633 151.274 86.482 150.759 86.3246C150.759 86.3496 150.745 86.3729 150.736 86.3961C150.628 86.3293 150.504 86.2929 150.378 86.2906C150.072 86.2763 149.823 86.0545 149.601 85.8452L148.92 85.2031C148.875 85.1638 148.836 85.1194 148.802 85.0708C148.765 85.0012 148.737 84.9273 148.719 84.8508C148.605 84.4805 148.328 84.1854 148.059 83.9046C148.008 83.8406 147.941 83.7917 147.864 83.7633C147.835 83.7588 147.804 83.7588 147.775 83.7633C147.756 83.7383 147.737 83.7144 147.716 83.6918C147.669 83.6386 147.62 83.5884 147.567 83.5415C147.242 83.241 147.209 82.9835 146.927 82.6472C146.68 82.3265 146.457 81.9888 146.258 81.6366C146.234 81.4488 146.202 81.2557 146.163 81.0607C146.073 80.6144 145.941 80.1773 145.771 79.755L145.413 78.9626L145.372 79.0038C145.113 78.6174 144.835 78.4064 144.587 78.4565C144.17 78.5423 143.964 79.3508 144.03 80.4078L144.173 81.481C144.173 81.5078 144.186 81.5347 144.193 81.5615C144.167 81.6887 144.154 81.8181 144.154 81.9478C144.154 82.0981 144.293 82.209 144.366 82.3431C144.484 82.5248 144.546 82.7367 144.545 82.953C144.536 83.03 144.513 83.1033 144.51 83.1784C144.519 83.3465 144.578 83.508 144.678 83.6435L145.572 85.1459L145.751 85.4607L145.762 85.475C145.818 85.5849 145.901 85.6794 146.002 85.7505C146.037 86.1267 146.137 86.494 146.297 86.8361C146.327 86.9041 146.361 86.9685 146.397 87.0329C146.638 87.4281 146.921 87.7958 147.242 88.1293L147.667 88.6069C148.088 89.0755 148.508 89.5459 148.964 89.9788C149.128 90.1524 149.325 90.2906 149.544 90.3848C149.651 90.4276 149.768 90.4415 149.882 90.4248C149.997 90.4082 150.105 90.3617 150.195 90.29C150.195 90.5118 150.195 90.7335 150.195 90.9553C150.262 90.9594 150.326 90.9812 150.381 91.0183C150.436 91.0554 150.481 91.1066 150.509 91.1666C150.538 91.2266 150.551 91.2932 150.545 91.3595C150.539 91.4258 150.516 91.4894 150.478 91.5438C150.102 92.5079 149.723 93.4809 149.154 94.3448C149.556 94.5824 149.928 94.8664 150.263 95.1908C150.481 95.4319 150.675 95.6937 150.841 95.9724C150.857 96.1048 150.87 96.2353 150.877 96.3659C151.009 98.4979 150.185 100.614 149.446 102.646C149.233 103.222 149 103.824 149.018 104.424C148.878 104.51 148.744 104.606 148.617 104.712C148.764 105.094 148.707 105.436 148.691 105.846C148.685 106.091 148.635 106.334 148.542 106.561C148.464 106.719 148.378 106.872 148.285 107.021C147.821 107.838 147.719 108.809 147.626 109.743C147.571 110.306 147.789 110.995 147.533 111.499C147.091 112.365 146.699 113.288 146.639 114.25C146.637 114.467 146.609 114.682 146.556 114.892C146.501 115.071 146.402 115.223 146.352 115.399C146.301 115.633 146.289 115.875 146.317 116.114C146.351 116.971 146.223 117.828 145.941 118.638C145.717 119.276 145.47 119.96 145.646 120.616C145.214 121.069 144.947 121.655 144.889 122.278C144.884 122.437 144.865 122.596 144.832 122.752C144.777 122.911 144.705 123.064 144.617 123.208C144.257 123.863 144.088 124.607 144.13 125.354C143.594 126.082 143.325 126.98 143.166 127.872C143.007 128.765 142.937 129.674 142.733 130.555C142.461 131.722 141.969 132.9 141.872 134.095C141.293 134.465 141.042 135.183 140.931 135.86C140.82 136.538 140.803 137.25 140.518 137.876C140.371 138.202 140.16 138.493 140.021 138.826C139.923 139.091 139.851 139.365 139.806 139.643C139.72 140.08 139.645 140.566 139.751 140.985C139.599 141.146 139.422 141.28 139.226 141.384C139.255 141.273 139.278 141.162 139.298 141.049C138.836 141.468 137.999 141.321 137.63 141.824C137.52 141.986 137.477 142.184 137.51 142.378C137.543 142.571 137.651 142.744 137.809 142.859C137.925 142.93 138.049 142.983 138.18 143.019C139.074 143.305 139.994 143.593 140.913 143.441C141.022 143.429 141.127 143.395 141.223 143.342C141.343 143.254 141.441 143.141 141.511 143.01C141.649 142.791 141.787 142.573 141.923 142.355C142.252 142.453 142.587 142.531 142.926 142.589C142.96 142.875 142.985 143.162 142.998 143.448C143.177 143.484 143.416 143.494 143.501 143.328C143.526 143.265 143.536 143.197 143.531 143.129C143.531 143.002 143.549 142.834 143.56 142.663H143.595C144.141 142.685 144.684 142.575 145.179 142.342C144.987 140.758 145.619 139.209 146.166 137.71C146.744 136.132 147.24 134.526 147.739 132.92C148.097 131.79 148.492 130.695 148.843 129.563C149.284 128.132 149.727 126.701 150.172 125.27C150.365 124.64 150.56 124.018 150.782 123.392C151.249 122.125 151.803 120.892 152.441 119.702C152.62 119.364 152.799 119.03 152.945 118.679C153.124 118.251 153.251 117.804 153.394 117.363C153.706 116.456 154.082 115.573 154.518 114.719C154.53 114.696 154.539 114.674 154.552 114.653C154.697 115.245 154.842 115.846 154.938 116.441C155.069 117.172 155.079 117.918 154.969 118.652C154.883 119.151 154.72 119.645 154.74 120.151C154.767 120.85 155.14 121.485 155.325 122.16C155.444 122.664 155.511 123.18 155.525 123.698C155.575 124.503 156.012 125.406 155.704 126.152C154.747 128.515 155.21 131.183 154.665 133.664C154.384 134.938 153.523 136.134 153.591 137.436C153.639 138.36 153.72 139.282 153.834 140.201C153.862 140.492 153.938 140.775 154.058 141.04C154.129 141.18 154.211 141.314 154.303 141.441C154.224 141.471 154.158 141.552 154.101 141.722C153.954 142.169 154.101 142.723 154.498 142.974C154.66 143.06 154.834 143.121 155.015 143.153C155.258 143.222 155.51 143.257 155.763 143.256C155.842 143.252 155.92 143.243 155.997 143.228C156.274 143.344 156.556 143.445 156.844 143.532C156.844 143.605 156.858 143.678 156.867 143.752C156.867 143.79 156.876 143.828 156.892 143.863C156.908 143.898 156.931 143.929 156.96 143.954C157.005 143.975 157.054 143.983 157.103 143.979H158.075C158.075 143.899 158.075 143.816 158.075 143.736C158.186 143.747 158.298 143.735 158.404 143.701C158.511 143.666 158.609 143.61 158.692 143.535C158.778 143.426 158.839 143.299 158.871 143.163C159.136 142.265 159.399 141.367 159.66 140.468C159.973 139.474 160.103 138.432 160.044 137.391C159.699 134.095 160.458 130.788 160.211 127.483C160.062 125.496 160.164 123.498 160.515 121.537C160.595 121.094 160.694 120.643 160.73 120.201C160.808 119.368 160.712 118.525 160.771 117.697C160.79 117.407 160.83 117.119 160.866 116.831C161.111 115.044 161.239 113.243 161.25 111.439C161.245 110.841 161.208 110.244 161.139 109.65C161.326 109.603 161.495 109.503 161.628 109.364C161.787 109.156 161.746 108.865 161.744 108.6C161.744 107.967 162.011 107.37 162.225 106.772C162.501 105.948 162.727 105.108 162.902 104.257C163.086 103.571 163.187 102.866 163.202 102.156C163.202 102.084 163.199 102.013 163.191 101.941C163.259 101.894 163.315 101.833 163.356 101.762C163.403 101.657 163.432 101.546 163.442 101.431C163.506 100.975 163.572 100.517 163.637 100.059C163.685 99.7315 163.732 99.4042 163.778 99.0775L164.347 95.1085C164.395 94.7633 164.446 94.4199 164.494 94.0765L164.642 93.0498C164.658 92.9282 164.676 92.8066 164.689 92.6921C165.125 91.9623 164.709 90.9893 164.662 90.1594ZM159.916 105.019C159.704 104.518 159.508 104.005 159.558 103.465H159.538C159.585 103.299 159.577 103.122 159.515 102.961C159.459 102.83 159.363 102.719 159.304 102.589C159.24 102.429 159.207 102.259 159.207 102.088C159.163 101 159.249 99.9106 159.463 98.8432C159.486 98.718 159.511 98.591 159.534 98.4657C159.61 98.4224 159.678 98.3688 159.738 98.3066C159.833 98.1993 159.91 98.0788 159.969 97.9488C160.171 97.5428 160.356 97.1297 160.526 96.7093C160.581 96.5734 160.662 96.416 160.799 96.382C160.771 97.4284 160.878 98.4962 160.452 99.4406C160.371 99.5928 160.311 99.7553 160.273 99.9235C160.234 100.19 160.345 100.46 160.306 100.725C160.286 100.863 160.227 100.99 160.204 101.125C160.186 101.192 160.186 101.262 160.204 101.329C160.223 101.396 160.258 101.456 160.307 101.505C160.331 101.521 160.357 101.534 160.384 101.544C160.374 101.616 160.365 101.689 160.357 101.759C160.343 101.905 160.336 102.043 160.327 102.129C160.286 102.566 160.27 103.006 160.279 103.445C160.279 103.919 160.297 104.393 160.289 104.876C160.296 105.015 160.273 105.153 160.222 105.282C160.186 105.349 160.14 105.409 160.086 105.461C160.034 105.3 159.976 105.159 159.916 105.019Z" fill="url(#paint0_linear)"/>
<path d="M145.793 84.2652C146.339 84.1533 146.525 82.8098 146.208 81.2644C145.891 79.7189 145.192 78.5568 144.646 78.6686C144.1 78.7804 143.914 80.1239 144.231 81.6694C144.548 83.2148 145.247 84.377 145.793 84.2652Z" fill="#FBBEBE"/>
<path d="M154.129 141.754C153.983 142.198 154.129 142.752 154.527 142.994C154.688 143.08 154.861 143.14 155.04 143.173C155.283 143.241 155.534 143.275 155.786 143.275C156.096 143.26 156.393 143.139 156.702 143.096C156.738 143.087 156.776 143.092 156.808 143.11C156.823 143.127 156.835 143.146 156.842 143.168C156.848 143.19 156.85 143.213 156.847 143.235C156.85 143.411 156.864 143.587 156.886 143.761C156.887 143.799 156.895 143.837 156.911 143.872C156.927 143.907 156.951 143.938 156.979 143.963C157.024 143.984 157.074 143.993 157.123 143.988H158.092C158.114 143.137 158.021 142.286 157.815 141.459C157.802 141.396 157.777 141.335 157.743 141.28C157.661 141.19 157.553 141.128 157.434 141.101C157.197 141.003 156.941 140.958 156.684 140.971C156.371 141.012 156.11 141.214 155.843 141.382C155.577 141.55 155.214 141.699 154.89 141.613C154.566 141.527 154.296 141.257 154.129 141.754Z" fill="#3F3D56"/>
<path d="M139.892 140.971C139.619 141.263 139.285 141.49 138.913 141.637L138.749 141.715C138.726 141.724 138.707 141.739 138.693 141.76C138.69 141.774 138.69 141.788 138.693 141.802C138.696 141.816 138.702 141.829 138.711 141.84C138.848 142.052 139.051 142.213 139.288 142.3C139.525 142.386 139.783 142.392 140.024 142.318C140.131 142.291 140.23 142.24 140.312 142.168C140.449 142.006 140.527 141.803 140.534 141.592C140.588 141.374 140.579 141.145 140.507 140.932C140.259 140.372 140.168 140.626 139.892 140.971Z" fill="#FBBEBE"/>
<path d="M143.609 143.173C143.615 143.241 143.605 143.309 143.579 143.372C143.495 143.536 143.261 143.527 143.078 143.492C143.05 142.885 142.977 142.281 142.858 141.685C142.511 141.669 142.261 141.998 142.074 142.293L141.595 143.053C141.526 143.184 141.428 143.298 141.309 143.386C141.213 143.438 141.108 143.472 140.999 143.484C140.083 143.636 139.158 143.348 138.274 143.062C138.144 143.027 138.02 142.974 137.904 142.905C137.746 142.789 137.64 142.617 137.606 142.424C137.573 142.231 137.616 142.033 137.725 141.871C138.096 141.37 138.927 141.513 139.389 141.098C139.341 141.39 139.262 141.676 139.153 141.952C139.77 141.859 140.185 141.293 140.683 140.916C140.808 140.81 140.958 140.738 141.119 140.708C141.24 140.698 141.361 140.711 141.477 140.746C142.05 140.89 142.587 141.154 143.051 141.52C143.239 141.669 143.533 141.878 143.615 142.107C143.703 142.381 143.609 142.882 143.609 143.173Z" fill="#3F3D56"/>
<path d="M155.917 84.1601C157.958 84.1601 159.613 82.5057 159.613 80.4648C159.613 78.424 157.958 76.7695 155.917 76.7695C153.876 76.7695 152.221 78.424 152.221 80.4648C152.221 82.5057 153.876 84.1601 155.917 84.1601Z" fill="#FBBEBE"/>
<path d="M163.198 102.282C163.184 102.988 163.083 103.69 162.9 104.373C162.725 105.22 162.499 106.056 162.223 106.877C162.01 107.472 161.744 108.07 161.746 108.701C161.746 108.964 161.789 109.256 161.628 109.463C161.484 109.609 161.303 109.712 161.105 109.762C161.006 109.788 160.915 109.837 160.838 109.905C160.762 109.973 160.703 110.058 160.665 110.153C160.497 109.903 160.371 109.626 160.293 109.334C159.972 108.352 159.674 107.364 159.398 106.371C159.373 106.313 159.362 106.251 159.367 106.189C159.371 106.126 159.391 106.066 159.423 106.013C159.469 105.973 159.522 105.944 159.579 105.925C159.762 105.85 159.93 105.743 160.075 105.607C160.142 105.547 160.198 105.475 160.239 105.394C160.291 105.266 160.315 105.128 160.309 104.99C160.309 104.516 160.309 104.044 160.297 103.57C160.289 103.132 160.306 102.694 160.347 102.259C160.347 102.173 160.363 102.035 160.377 101.888C160.404 101.607 160.458 101.282 160.61 101.173C160.837 101.021 161.517 101.225 161.774 101.26C162.218 101.321 162.669 101.393 163.102 101.477C163.165 101.741 163.197 102.011 163.198 102.282Z" fill="#3F3D56"/>
<path d="M148.274 84.6023C148.131 84.8885 147.787 85.0262 147.522 85.2068L146.615 85.8293C146.555 85.8839 146.484 85.9256 146.407 85.9521C146.329 85.9785 146.248 85.9891 146.166 85.9831C146.093 85.9558 146.025 85.9141 145.967 85.8604C145.91 85.8066 145.864 85.7419 145.832 85.6701C145.832 85.6653 145.832 85.6605 145.832 85.6558L145.644 85.341L144.749 83.8421C144.65 83.7079 144.592 83.5474 144.583 83.3807C144.583 83.3037 144.61 83.2322 144.617 83.1553C144.619 82.9393 144.557 82.7275 144.438 82.5472C144.366 82.413 144.223 82.3021 144.227 82.1519C144.22 81.9544 144.254 81.7577 144.327 81.5741C144.421 81.4043 144.556 81.2605 144.719 81.1556C144.803 81.0948 144.889 81.0376 144.978 80.9767C145.026 80.9443 145.078 80.9201 145.134 80.9052C145.283 80.8748 145.429 80.9982 145.579 81.0036C146.225 81.4364 146.474 82.2556 146.982 82.8459C147.268 83.1821 147.297 83.4397 147.621 83.7402C147.673 83.7867 147.723 83.8367 147.771 83.8886C147.835 83.9584 147.889 84.0367 147.932 84.1211C147.991 84.275 148.347 84.4556 148.274 84.6023Z" fill="#3F3D56"/>
<path d="M154.618 84.1608C154.884 84.7243 155.092 85.3431 155.015 85.962C154.999 86.1296 154.946 86.2916 154.859 86.436C154.602 86.8312 154.061 86.9028 153.591 86.926C153.492 86.9177 153.392 86.9292 153.297 86.96C153.203 86.9907 153.115 87.04 153.04 87.1049C152.977 87.1962 152.946 87.3059 152.952 87.4166C152.959 87.5273 153.001 87.6328 153.074 87.7166C153.225 87.878 153.413 88.0006 153.621 88.0743C154.366 88.4017 155.169 88.6717 155.978 88.5966C156.353 88.5608 156.718 88.4517 157.092 88.3963C157.5 88.3521 157.91 88.3295 158.32 88.3283C158.806 88.3104 159.291 88.2621 159.776 88.2138L161.06 88.0869C161.131 88.0879 161.199 88.063 161.252 88.0171C161.347 87.9062 161.225 87.7434 161.107 87.6594C160.425 87.155 159.558 86.808 159.169 86.0496C158.99 85.6919 158.935 85.2662 158.803 84.8799C158.67 84.4935 158.459 84.1447 158.377 83.7512C158.333 83.4061 158.313 83.0582 158.318 82.7103C158.322 82.3594 158.195 82.0197 157.96 81.7587C157.704 81.5208 157.334 81.46 156.987 81.4457C156.131 81.4082 155.221 81.6121 154.614 82.2148C154.452 82.3776 154.312 82.5725 154.144 82.7192C153.976 82.8659 153.747 82.9088 153.858 83.102C153.968 83.2951 154.187 83.415 154.305 83.5849C154.424 83.7683 154.529 83.9608 154.618 84.1608Z" fill="#FBBEBE"/>
<path d="M161.905 89.3655C161.679 90.7428 161.312 92.0931 160.81 93.3952C160.557 93.9832 160.342 94.5866 160.166 95.2017C160.028 95.7562 160.055 96.35 159.928 96.9063C159.77 97.5985 159.613 98.2925 159.486 98.9901C159.273 100.055 159.188 101.142 159.232 102.227C159.232 102.398 159.265 102.568 159.329 102.726C159.388 102.855 159.482 102.966 159.538 103.099C159.579 103.215 159.596 103.338 159.588 103.461C159.579 103.585 159.545 103.705 159.488 103.814C159.396 104.019 159.272 104.207 159.119 104.372C157.452 104.869 155.668 104.706 153.931 104.812C152.33 104.909 150.71 105.238 149.132 104.964C148.954 104.249 149.252 103.499 149.508 102.802C150.251 100.775 151.072 98.6645 150.939 96.5414C150.926 96.2938 150.898 96.0472 150.855 95.8027C150.596 94.2985 150.879 92.7406 151.331 91.2829C151.612 90.3743 151.6 89.4066 151.535 88.4604C151.503 88.1532 151.499 87.8437 151.523 87.5357C151.549 87.2212 151.665 86.9211 151.859 86.6718C151.859 86.6593 151.875 86.6468 151.884 86.6343C151.893 86.6217 151.963 86.6235 152.018 86.6343C152.032 86.6403 152.048 86.6434 152.063 86.6434C152.078 86.6434 152.094 86.6403 152.108 86.6343L152.127 86.6217C152.135 86.6163 152.144 86.6135 152.153 86.6135C152.163 86.6135 152.172 86.6163 152.179 86.6217C152.22 86.6468 152.244 86.7326 152.333 86.7487C152.465 86.7687 152.599 86.7813 152.732 86.7863C152.893 86.7911 153.052 86.8139 153.208 86.8543H153.23C153.462 86.8935 153.701 86.8732 153.924 86.7952C154.072 86.7582 154.215 86.7029 154.349 86.6307C154.389 86.5878 154.636 86.5484 154.686 86.518C154.849 86.4196 154.813 85.9582 154.847 85.7686C154.866 85.5784 154.911 85.3918 154.981 85.2141C155.063 85.0829 155.175 84.9738 155.308 84.8961C155.442 84.8185 155.592 84.7747 155.747 84.7687C156.055 84.7614 156.363 84.789 156.665 84.851C157.332 84.9458 158.015 84.9297 158.67 85.0835C158.999 85.1604 159.359 85.2767 159.661 85.1265C159.744 85.1461 159.756 85.2177 159.756 85.3053C159.748 85.3886 159.732 85.4708 159.706 85.5504C159.592 86.044 159.98 86.4983 160.338 86.8561C160.489 87.0247 160.667 87.1668 160.865 87.2764C161.044 87.3586 161.223 87.3926 161.402 87.4821C161.547 87.5594 161.67 87.6719 161.76 87.8094C161.863 87.967 161.933 88.1442 161.964 88.3299C162.002 88.6759 161.982 89.026 161.905 89.3655Z" fill="#3F3D56"/>
<path opacity="0.1" d="M161.905 89.366C161.679 90.7432 161.312 92.0936 160.81 93.3957C160.557 93.9837 160.342 94.5871 160.166 95.2022C160.028 95.7567 160.055 96.3505 159.928 96.9068C159.77 97.599 159.613 98.293 159.486 98.9905C159.448 99.012 159.409 99.0317 159.37 99.0496C159.147 99.1558 158.911 99.2316 158.668 99.2749C158.232 99.3277 157.79 99.3132 157.359 99.232L154.806 98.8904C153.786 98.7527 152.7 98.5863 151.943 97.8959C151.523 97.5167 151.247 97.0159 150.945 96.533C150.931 96.2853 150.903 96.0387 150.861 95.7943C150.601 94.29 150.884 92.7322 151.337 91.2744C151.617 90.3658 151.605 89.3982 151.541 88.452C151.509 88.1447 151.504 87.8353 151.528 87.5273C151.554 87.2128 151.671 86.9126 151.864 86.6634C151.917 86.648 151.97 86.6361 152.024 86.6276C152.06 86.6203 152.096 86.6155 152.133 86.6133H152.185C152.245 86.6135 152.305 86.6207 152.364 86.6347C152.485 86.6735 152.605 86.7195 152.721 86.7725H152.743C152.896 86.823 153.057 86.846 153.219 86.8404C153.455 86.8404 153.698 86.8029 153.934 86.7868C154.226 86.7412 154.525 86.7948 154.782 86.9388C154.949 87.0725 155.106 87.2164 155.255 87.3699C155.434 87.5104 155.635 87.6199 155.851 87.6936C157.391 88.2813 159.099 88.2454 160.613 87.5934C160.759 87.5108 160.924 87.4688 161.091 87.4718C161.214 87.496 161.331 87.546 161.434 87.6185C161.542 87.6811 161.647 87.7419 161.756 87.7973C161.859 87.9549 161.929 88.1321 161.96 88.3178C162.001 88.6678 161.983 89.0223 161.905 89.366Z" fill="black"/>
<path d="M163.463 88.1814C162.751 87.9639 162.066 87.6637 161.424 87.2871C161.321 87.2151 161.204 87.1652 161.08 87.1404C160.913 87.1384 160.747 87.1804 160.601 87.2621C159.087 87.9139 157.38 87.9498 155.84 87.3622C155.625 87.2878 155.424 87.1784 155.244 87.0385C155.096 86.8855 154.938 86.7416 154.772 86.6074C154.183 86.2264 153.369 86.6736 152.711 86.4286C152.594 86.3764 152.475 86.3304 152.353 86.2908C151.832 86.1603 151.303 86.679 150.791 86.5216C150.601 87.0389 150.46 87.5731 150.371 88.117C150.298 88.7417 150.259 89.3698 150.254 89.9986C150.254 90.376 150.237 90.7534 150.254 91.1308C150.318 91.1412 150.378 91.1644 150.431 91.1992C150.485 91.234 150.531 91.2796 150.566 91.333C150.589 91.3953 150.599 91.462 150.594 91.5284C150.589 91.5948 150.57 91.6593 150.537 91.7175C150.163 92.678 149.784 93.6492 149.217 94.5095C149.617 94.7476 149.987 95.0309 150.322 95.3538C150.949 96.0156 151.256 96.9438 151.933 97.5556C152.695 98.2442 153.781 98.4123 154.795 98.5482L157.348 98.8899C157.781 98.9708 158.223 98.9858 158.66 98.9346C158.902 98.8904 159.137 98.814 159.359 98.7074C159.504 98.6468 159.637 98.5594 159.749 98.4499C159.844 98.3428 159.921 98.2222 159.98 98.0921C160.182 97.6879 160.366 97.2747 160.536 96.8562C160.595 96.7077 160.685 96.5342 160.846 96.5217C161.794 95.6668 162.689 94.7904 163.637 93.9354C164.018 93.6197 164.36 93.2594 164.655 92.8622C165.125 92.1664 164.698 91.1809 164.655 90.3403C164.65 90.1252 164.623 89.9113 164.574 89.7017C164.421 89.0918 164.059 88.362 163.463 88.1814Z" fill="#FFC107"/>
<path opacity="0.1" d="M148.274 84.6019C148.131 84.8881 147.787 85.0258 147.523 85.2064L146.616 85.8289C146.555 85.8835 146.484 85.9252 146.407 85.9517C146.33 85.9781 146.248 85.9887 146.166 85.9827C146.093 85.9554 146.025 85.9137 145.968 85.86C145.91 85.8062 145.864 85.7415 145.832 85.6697C145.832 85.6285 145.832 85.5838 145.832 85.5409C145.825 85.3961 145.844 85.2513 145.889 85.1134C145.978 84.9112 146.116 84.7341 146.29 84.5983C146.627 84.2794 147.027 84.0356 147.465 83.8828C147.534 83.8563 147.608 83.8489 147.68 83.8614C147.708 83.8686 147.734 83.8801 147.759 83.8954C147.823 83.9652 147.877 84.0434 147.92 84.1279C147.991 84.2746 148.347 84.4552 148.274 84.6019Z" fill="black"/>
<path d="M150.41 86.4866C150.106 86.4723 149.857 86.2523 149.635 86.0431L148.957 85.4135C148.912 85.3751 148.872 85.3306 148.839 85.2811C148.803 85.2116 148.775 85.1376 148.757 85.0611C148.613 84.6998 148.388 84.3766 148.099 84.1167C148.048 84.0526 147.981 84.0042 147.904 83.9772C147.831 83.9638 147.756 83.9712 147.687 83.9987C147.249 84.1512 146.848 84.395 146.512 84.7141C146.338 84.8501 146.2 85.0271 146.111 85.2292C146.066 85.3671 146.047 85.5119 146.054 85.6567C146.058 86.1293 146.164 86.5954 146.365 87.0232C146.395 87.0894 146.429 87.1556 146.465 87.22C146.704 87.6144 146.986 87.981 147.306 88.3128L147.732 88.7886C148.151 89.2572 148.569 89.7258 149.024 90.1569C149.186 90.3306 149.384 90.4683 149.603 90.5611C149.713 90.606 149.834 90.6198 149.951 90.6009C150.069 90.5819 150.178 90.531 150.269 90.4538C150.355 90.3546 150.419 90.239 150.458 90.114C150.734 89.3985 150.995 88.6544 151.011 87.8836C151.015 87.5748 151.002 87.2661 150.972 86.9588C150.945 86.6333 150.714 86.5063 150.41 86.4866Z" fill="#FFC107"/>
<path d="M161.252 111.527C161.241 113.327 161.114 115.123 160.869 116.906C160.833 117.194 160.794 117.482 160.774 117.77C160.715 118.605 160.812 119.444 160.733 120.274C160.692 120.723 160.599 121.168 160.52 121.606C160.17 123.562 160.068 125.554 160.216 127.535C160.463 130.832 159.706 134.13 160.05 137.418C160.091 138.057 160.056 138.699 159.944 139.33C159.88 139.721 159.787 140.107 159.667 140.485C159.405 141.381 159.143 142.275 158.879 143.168C158.848 143.304 158.787 143.431 158.701 143.54C158.609 143.619 158.502 143.677 158.387 143.712C158.271 143.746 158.149 143.755 158.03 143.739C156.997 143.706 156.026 143.261 155.088 142.826C154.981 142.784 154.881 142.723 154.793 142.648C154.598 142.445 154.614 142.127 154.528 141.861C154.443 141.594 154.21 141.344 154.078 141.07C153.969 140.811 153.903 140.536 153.883 140.256C153.763 139.34 153.682 138.421 153.639 137.498C153.571 136.2 154.43 135.005 154.713 133.742C155.249 131.259 154.795 128.598 155.749 126.242C156.049 125.498 155.613 124.597 155.57 123.795C155.554 123.279 155.487 122.764 155.369 122.261C155.19 121.588 154.813 120.955 154.786 120.258C154.766 119.753 154.929 119.261 155.013 118.764C155.125 118.032 155.115 117.287 154.983 116.559C154.888 115.958 154.743 115.357 154.598 114.77L154.566 114.836C154.13 115.688 153.755 116.57 153.444 117.475C153.301 117.913 153.176 118.36 152.997 118.786C152.85 119.143 152.67 119.471 152.492 119.807C151.857 120.993 151.304 122.221 150.837 123.482C150.616 124.101 150.421 124.735 150.227 125.355L148.902 129.648C148.544 130.776 148.152 131.868 147.801 132.994C147.306 134.604 146.81 136.2 146.234 137.774C145.697 139.267 145.059 140.814 145.25 142.392C144.757 142.624 144.215 142.733 143.67 142.712C142.748 142.63 141.844 142.411 140.987 142.061C140.645 141.934 140.291 141.791 140.06 141.51C139.663 141.025 139.761 140.315 139.881 139.698C139.926 139.42 139.998 139.147 140.096 138.882C140.232 138.553 140.454 138.262 140.593 137.936C140.874 137.312 140.892 136.606 141.003 135.928C141.114 135.25 141.361 134.534 141.94 134.166C142.039 132.975 142.529 131.8 142.799 130.635C143.003 129.753 143.071 128.847 143.232 127.952C143.393 127.058 143.652 126.164 144.193 125.439C144.15 124.692 144.319 123.948 144.679 123.293C144.767 123.149 144.838 122.996 144.892 122.837C144.926 122.681 144.945 122.523 144.95 122.365C145.009 121.743 145.275 121.159 145.705 120.707C145.526 120.054 145.774 119.372 145.998 118.739C146.28 117.931 146.407 117.077 146.374 116.222C146.346 115.984 146.357 115.742 146.408 115.507C146.458 115.328 146.556 115.176 146.613 115.004C146.664 114.794 146.691 114.579 146.694 114.362C146.764 113.395 147.156 112.482 147.588 111.619C147.846 111.114 147.628 110.429 147.682 109.867C147.775 108.934 147.877 107.968 148.34 107.154C148.426 107 148.519 106.854 148.596 106.694C148.689 106.467 148.739 106.225 148.744 105.979C148.76 105.569 148.818 105.23 148.671 104.849C149.628 104.053 150.934 103.829 152.179 103.775C153.425 103.722 154.684 103.834 155.902 103.57C156.26 103.489 156.618 103.378 156.996 103.325C157.853 103.2 158.722 103.394 159.568 103.588C159.509 104.124 159.706 104.639 159.926 105.138C160.785 107.16 161.236 109.331 161.252 111.527Z" fill="#33313F"/>
<path opacity="0.1" d="M157.038 111.938L154.983 116.559C154.888 115.958 154.743 115.357 154.598 114.771L154.566 114.837V114.74L155.686 112.277L157.038 111.938Z" fill="black"/>
<path opacity="0.1" d="M163.199 102.282C163.08 102.37 162.938 102.423 162.791 102.434C162.564 102.442 162.338 102.411 162.122 102.343L160.511 101.94C160.461 101.928 160.412 101.91 160.365 101.888C160.392 101.607 160.445 101.282 160.597 101.173C160.825 101.021 161.504 101.225 161.762 101.26C162.206 101.321 162.657 101.393 163.09 101.477C163.157 101.74 163.193 102.01 163.199 102.282Z" fill="black"/>
<path d="M164.56 91.6393C164.594 91.7878 164.642 91.9345 164.671 92.0847C164.719 92.4533 164.706 92.8274 164.633 93.1919L164.487 94.215L164.34 95.2434L163.773 99.2016L163.633 100.182L163.437 101.55C163.427 101.664 163.398 101.775 163.351 101.879C163.292 101.976 163.21 102.058 163.112 102.115C163.015 102.173 162.904 102.206 162.791 102.21C162.564 102.217 162.338 102.186 162.122 102.119L160.511 101.715C160.441 101.702 160.374 101.675 160.315 101.634C160.265 101.586 160.23 101.526 160.212 101.459C160.193 101.393 160.193 101.323 160.211 101.257C160.234 101.121 160.293 100.994 160.313 100.858C160.352 100.593 160.241 100.321 160.281 100.058C160.319 99.891 160.379 99.7292 160.46 99.5772C160.996 98.3914 160.685 97.007 160.867 95.7192C161.032 94.7057 161.46 93.7532 162.109 92.9576C162.51 92.4554 162.97 92.0037 163.479 91.6125C163.68 91.4569 163.998 91.1367 164.251 91.0759C164.574 91.008 164.506 91.414 164.56 91.6393Z" fill="#FFC107"/>
<path d="M152.374 76.2322C152.256 76.6078 152.441 77.021 152.356 77.4037C152.265 77.8258 151.868 78.1192 151.755 78.5431C151.576 79.1888 152.124 79.7772 152.525 80.3138C154.01 82.3063 153.815 85.0644 153.306 87.4951C152.898 89.4453 152.332 91.3593 151.616 93.2187C151.392 93.7964 151.145 94.3831 150.705 94.8159C151.528 94.5798 152.403 94.3419 153.228 94.5709C154.273 94.8606 155.174 95.8748 156.233 95.6441C156.87 95.5028 157.318 94.9376 157.89 94.6245C158.964 94.0468 160.257 94.4099 161.454 94.5959C161.712 94.6568 161.982 94.6431 162.232 94.5566C162.424 94.4537 162.586 94.3042 162.705 94.1219C163.239 93.4368 163.559 92.6093 163.624 91.7431C163.653 91.3118 163.589 90.8794 163.437 90.4745C163.286 90.0696 163.05 89.7015 162.746 89.3946C162.492 89.1549 162.188 88.9618 161.993 88.6792C161.803 88.3491 161.701 87.9759 161.697 87.5953C161.556 85.6278 162.035 83.6192 161.542 81.7161C161.363 81.0382 161.071 80.3889 160.992 79.6949C160.894 78.831 161.128 77.9063 160.785 77.1158C160.515 76.4879 159.919 76.0426 159.277 75.8136C158.634 75.5847 157.947 75.5203 157.266 75.4559C156.285 75.3736 152.784 74.9533 152.374 76.2322Z" fill="#33313F"/>
<g opacity="0.1">
<path opacity="0.1" d="M153.306 87.4962C152.899 89.4384 152.337 91.3446 151.625 93.1966C151.748 92.9515 151.852 92.694 151.95 92.4382C152.667 90.5791 153.233 88.665 153.641 86.7146C154.151 84.2821 154.346 81.5276 152.861 79.5333C152.503 79.0575 152.043 78.5424 152.059 77.9844C151.927 78.1532 151.824 78.343 151.755 78.546C151.576 79.1917 152.124 79.7801 152.524 80.3167C154.009 82.3075 153.814 85.0655 153.306 87.4962Z" fill="black"/>
<path opacity="0.1" d="M152.378 77.2247C152.522 77.0464 152.629 76.8416 152.693 76.6219C152.721 76.3562 152.713 76.0881 152.671 75.8242C152.534 75.9279 152.43 76.0706 152.374 76.2338C152.269 76.5504 152.391 76.8938 152.378 77.2247Z" fill="black"/>
<path opacity="0.1" d="M163.041 93.3368C162.922 93.5185 162.76 93.6674 162.569 93.7696C162.319 93.858 162.048 93.8716 161.79 93.809C160.593 93.6301 159.286 93.2617 158.226 93.8394C157.652 94.1506 157.207 94.7158 156.568 94.8589C155.511 95.095 154.609 94.0808 153.564 93.7857C152.823 93.58 152.043 93.75 151.297 93.9646C151.149 94.2806 150.949 94.5696 150.705 94.8196C151.528 94.5835 152.403 94.3456 153.228 94.5745C154.273 94.8643 155.174 95.8784 156.233 95.6477C156.87 95.5064 157.318 94.9412 157.89 94.6282C158.964 94.0504 160.257 94.4135 161.454 94.5995C161.712 94.6604 161.982 94.6467 162.232 94.5602C162.424 94.4573 162.586 94.3078 162.705 94.1256C163.029 93.698 163.279 93.2192 163.445 92.709C163.326 92.9277 163.191 93.1375 163.041 93.3368Z" fill="black"/>
</g>
</g>
<defs>
<linearGradient id="paint0_linear" x1="137.511" y1="109.539" x2="164.884" y2="109.539" gradientUnits="userSpaceOnUse">
<stop stop-color="#808080" stop-opacity="0.25"/>
<stop offset="0.54" stop-color="#808080" stop-opacity="0.12"/>
<stop offset="1" stop-color="#808080" stop-opacity="0.1"/>
</linearGradient>
<clipPath id="clip0">
<rect width="208.64" height="144" fill="white"/>
</clipPath>
</defs>
</svg>
