<svg width="24" height="24" viewBox="0 0 24 24" fill="none" xmlns="http://www.w3.org/2000/svg">
<g clip-path="url(#clip0)">
<path d="M12.0018 23.9998C18.6292 23.9998 24.0017 18.6273 24.0017 11.9999C24.0017 5.37254 18.6292 0 12.0018 0C5.37449 0 0.00195312 5.37254 0.00195312 11.9999C0.00195312 18.6273 5.37449 23.9998 12.0018 23.9998Z" fill="#55ACEE"/>
<path d="M19.3518 8.62436C18.8375 8.85239 18.2844 9.00662 17.7043 9.07549C18.2966 8.72062 18.7511 8.15911 18.9657 7.48893C18.4114 7.81771 17.7973 8.05622 17.1442 8.18478C16.621 7.62754 15.8755 7.2793 15.0501 7.2793C13.4663 7.2793 12.1818 8.56382 12.1818 10.1476C12.1818 10.3724 12.2072 10.5913 12.2564 10.8013C9.8726 10.6817 7.75896 9.53989 6.34417 7.80402C6.09732 8.22756 5.95571 8.72062 5.95571 9.24619C5.95571 10.2411 6.46246 11.1194 7.23168 11.6336C6.76172 11.6189 6.31914 11.4899 5.93261 11.2745C5.93239 11.2867 5.93239 11.2989 5.93239 11.3108C5.93239 12.7006 6.92151 13.8598 8.23342 14.1231C7.99298 14.189 7.73907 14.2239 7.47789 14.2239C7.29264 14.2239 7.11317 14.2061 6.93819 14.1727C7.30312 15.312 8.36219 16.1414 9.61762 16.1647C8.63578 16.9341 7.39917 17.3925 6.05496 17.3925C5.82394 17.3925 5.59506 17.379 5.37109 17.3523C6.63979 18.1664 8.14785 18.6411 9.76757 18.6411C15.0434 18.6411 17.9286 14.2705 17.9286 10.4798C17.9286 10.3555 17.9259 10.2317 17.9203 10.1089C18.4812 9.7046 18.9674 9.19956 19.3518 8.62436Z" fill="#F1F2F2"/>
</g>
<defs>
<clipPath id="clip0">
<path d="M0 0H24V24H0V0Z" fill="white"/>
</clipPath>
</defs>
</svg>
