<svg width="254" height="257" viewBox="0 0 254 257" fill="none" xmlns="http://www.w3.org/2000/svg">
<g clip-path="url(#clip0)">
<path d="M55.3498 256.206C73.707 256.206 88.5884 253.804 88.5884 250.842C88.5884 247.879 73.707 245.478 55.3498 245.478C36.9927 245.478 22.1113 247.879 22.1113 250.842C22.1113 253.804 36.9927 256.206 55.3498 256.206Z" fill="#E6E6E6"/>
<path d="M254 226.9L120.237 199.215V70.1472L254 0.794922V226.9Z" fill="#E6E6E6"/>
<path d="M253.675 14.3491L119.911 77.9511V70.4704L253.675 1.23438V14.3491Z" fill="#FFE563"/>
<path d="M126.08 71.4383C126.08 73.1596 125.497 74.8339 124.782 75.1757C124.072 75.5148 123.501 74.4119 123.501 72.7148C123.501 71.0177 124.072 69.3496 124.782 68.9864C125.497 68.6204 126.08 69.717 126.08 71.4383Z" fill="#E6E6E6"/>
<path d="M131.275 68.8633C131.275 70.5369 130.692 72.1712 129.977 72.5112C129.267 72.8486 128.696 71.7821 128.696 70.1313C128.696 68.4805 129.267 66.8523 129.977 66.4921C130.692 66.1291 131.275 67.1896 131.275 68.8633Z" fill="#E6E6E6"/>
<path d="M136.47 66.2832C136.47 67.9568 135.886 69.5911 135.171 69.9311C134.462 70.2685 133.89 69.202 133.89 67.5512C133.89 65.9004 134.462 64.2722 135.171 63.912C135.886 63.5491 136.47 64.6096 136.47 66.2832Z" fill="#E6E6E6"/>
<path opacity="0.2" d="M219.273 101.446L136.807 120.188V96.2853L219.273 67.3223V101.446Z" fill="black"/>
<path d="M217.637 99.8199L135.171 118.562V94.6593L217.637 65.6963V99.8199Z" fill="white"/>
<path opacity="0.2" d="M150.438 103.731C150.438 107.582 148.972 111.077 147.191 111.529C145.442 111.974 144.045 109.304 144.045 105.572C144.045 101.84 145.442 98.3651 147.191 97.8024C148.972 97.2298 150.438 99.8802 150.438 103.731Z" fill="black"/>
<path d="M149.457 102.756C149.457 106.607 147.991 110.102 146.21 110.555C144.46 111 143.064 108.329 143.064 104.597C143.064 100.865 144.46 97.3905 146.21 96.8278C147.991 96.2552 149.457 98.9055 149.457 102.756Z" fill="#FFE563"/>
<path d="M197.832 89.0972L158.223 100.459V96.4378L197.832 84.3379V89.0972Z" fill="#E6E6E6"/>
<path d="M188.742 100.602L165.365 106.463V102.309L188.742 96.0117V100.602Z" fill="#E6E6E6"/>
<path opacity="0.2" d="M219.276 186.916L136.81 180.049V132.085L219.276 118.408V186.916Z" fill="black"/>
<path d="M217.312 185.293L134.847 178.425V130.461L217.312 116.784V185.293Z" fill="white"/>
<path opacity="0.2" d="M148.487 144.012L144.628 144.369V140.178L148.487 139.74V144.012Z" fill="black"/>
<path d="M147.834 143.361L143.974 143.719V139.527L147.834 139.09V143.361Z" fill="#FFE563"/>
<path d="M197.832 138.635L151.73 142.922V139.021L197.832 133.876V138.635Z" fill="#E6E6E6"/>
<path d="M197.832 154.175L151.73 155.658V151.757L197.832 149.416V154.175Z" fill="#E6E6E6"/>
<path d="M197.832 170.11L151.73 168.717V164.816L197.832 165.35V170.11Z" fill="#E6E6E6"/>
<path d="M51.6058 118.534H42.7826V114.241H50.1652L51.7857 115.136L51.6058 118.534Z" fill="#575A89"/>
<path d="M36.3003 236.777L36.6606 243.217L42.0626 242.144L41.1624 235.704L36.3003 236.777Z" fill="#FFB9B9"/>
<path d="M61.8699 233.38C61.8699 233.38 62.05 238.747 61.5098 240.178C60.9696 241.609 62.9503 242.324 62.9503 242.324H67.2719L69.7929 242.682V239.999C69.7929 239.999 66.9118 235.527 66.9118 233.022C66.9118 230.518 61.8699 233.38 61.8699 233.38Z" fill="#FFB9B9"/>
<path d="M37.2009 242.145C37.2009 242.145 40.8022 240.455 42.0627 241.479C43.3232 242.503 48.0049 251.268 46.2042 251.805C46.2042 251.805 44.9438 253.951 40.6222 252.52C36.3005 251.089 36.3005 249.479 36.3005 249.479C36.3005 249.479 35.0401 248.406 35.0401 248.048C35.0401 247.691 35.5803 244.471 35.5803 244.471C35.5803 244.471 35.9798 241.777 36.5903 241.961L37.2009 242.145Z" fill="#2F2E41"/>
<path d="M62.23 239.461C62.23 239.461 61.6898 238.925 61.3297 239.461C60.9695 239.998 58.9888 246.795 60.7895 247.153C62.5901 247.511 65.2912 248.763 65.6513 248.405C65.9522 248.026 66.1949 247.604 66.3716 247.153C66.3716 247.153 69.2526 248.405 70.153 249.479C71.0533 250.552 81.8574 252.878 81.4972 249.479C81.1371 246.08 75.7351 243.218 75.7351 243.218L69.7929 239.282C69.7929 239.282 67.452 239.461 66.9118 240.534C66.3716 241.608 62.5902 241.429 62.23 239.461Z" fill="#2F2E41"/>
<path d="M9.47028 170.233C9.47028 170.233 7.48953 172.738 7.84967 172.916C8.2098 173.095 16.1328 174.884 20.4544 173.811C24.776 172.738 33.7794 172.916 34.3196 171.664C34.8598 170.412 41.5223 154.849 41.5223 154.849L39.3615 143.043L37.0206 140.002L31.6186 135.351L20.8145 155.386L9.47028 170.233Z" fill="#575A89"/>
<path opacity="0.1" d="M9.47028 170.233C9.47028 170.233 7.48953 172.738 7.84967 172.916C8.2098 173.095 16.1328 174.884 20.4544 173.811C24.776 172.738 33.7794 172.916 34.3196 171.664C34.8598 170.412 41.5223 154.849 41.5223 154.849L39.3615 143.043L37.0206 140.002L31.6186 135.351L20.8145 155.386L9.47028 170.233Z" fill="black"/>
<path d="M32.3392 165.94C32.3392 165.94 29.8182 174.884 32.3392 187.227C34.8601 199.571 32.5192 202.254 33.0595 202.79C33.5997 203.327 33.7797 203.148 33.7797 203.685C33.7797 204.222 34.3199 206.726 33.7797 207.62C33.2395 208.515 33.2395 236.958 34.8601 237.673C36.4807 238.389 41.1625 240.177 42.0628 237.673C42.9632 235.169 42.2429 217.101 42.603 216.207C42.9632 215.312 42.9632 213.166 42.9632 212.629C42.9632 212.093 44.0436 206.01 44.2236 204.4C44.4037 202.79 44.9439 199.571 44.9439 199.571C44.9439 199.571 44.5838 186.87 45.6642 183.113C46.7446 179.357 47.1047 178.999 47.1047 178.999L55.748 201.359C55.748 201.359 55.0277 203.685 55.748 204.4C56.4682 205.116 55.5679 204.937 56.2882 206.189C57.0084 207.442 57.7287 207.799 57.7287 208.515C57.7287 209.23 57.0084 209.23 57.3686 209.767C57.7287 210.304 58.2689 212.271 58.2689 212.271L57.3686 214.418C57.3686 214.418 57.9088 218.89 58.6291 221.573C59.3493 224.257 59.3493 235.169 60.2497 235.348C61.15 235.526 68.1726 237.494 68.1726 233.38C68.1726 229.265 67.6324 211.377 67.6324 211.377C67.6324 211.377 66.552 208.694 66.552 207.978C66.552 207.263 66.372 206.905 66.7321 206.547C67.0922 206.189 67.4524 205.474 66.9122 204.937C66.372 204.4 66.552 203.685 66.552 202.969C66.5209 202.006 66.4003 201.048 66.1919 200.107C66.0118 199.392 62.5905 177.031 62.5905 177.031C62.5905 177.031 63.3108 174.348 62.5905 174.169C61.8703 173.99 61.8703 172.559 61.8703 171.843C61.8703 171.128 63.6709 162.184 61.5101 162.184C59.3493 162.184 32.3392 165.94 32.3392 165.94Z" fill="#2F2E41"/>
<path d="M8.56998 155.206L6.04903 156.458C6.04903 156.458 -2.95435 161.288 1.00714 163.971C4.96863 166.655 8.93011 160.215 8.93011 160.215L12.7115 157.353L8.56998 155.206Z" fill="#FFB9B9"/>
<path d="M43.6828 106.192C43.6828 106.192 42.9625 114.42 39.1811 116.209C35.3997 117.998 37.9206 131.415 37.9206 131.415L43.1426 136.423L52.326 133.74L53.4064 127.658L54.3068 121.397L52.146 118.177C52.146 118.177 49.445 117.462 50.5254 110.306C51.6058 103.151 43.6828 106.192 43.6828 106.192Z" fill="#FFB9B9"/>
<path d="M38.2813 119.072C38.2813 119.072 42.4229 132.667 45.3039 132.667C48.185 132.667 49.8056 129.447 50.1658 125.512C50.5259 121.576 52.8668 117.283 52.8668 117.283L58.4489 122.292C58.4489 122.292 62.9506 161.826 62.5904 162.899C62.2303 163.972 48.185 165.224 42.6029 166.834C37.0208 168.444 31.4388 167.192 31.4388 166.298C31.4388 165.501 34.2954 158.603 32.1217 153.565C31.3277 151.771 30.7908 149.874 30.5266 147.931C30.1902 145.279 29.8778 142.07 30.1783 141.075C30.7185 139.286 33.5996 120.324 33.5996 120.324L38.2813 119.072Z" fill="#FFE563"/>
<path d="M41.3299 114.136C41.3299 114.136 38.1009 115.852 36.6604 116.567C35.2199 117.283 26.3966 119.429 26.2165 120.503C26.0364 121.576 27.477 136.602 26.7567 138.212C26.0364 139.822 18.8337 154.133 18.8337 154.133L18.4736 157.174C18.4736 157.174 6.58915 171.306 8.02968 172.916C9.47022 174.526 14.8723 167.907 14.8723 167.907C14.8723 167.907 26.9368 148.766 27.2969 148.051C27.657 147.335 35.0398 134.098 36.1202 133.74C37.2006 133.382 39.7216 118.356 40.0817 117.64C40.4418 116.925 41.8577 113.851 41.3299 114.136Z" fill="#575A89"/>
<path d="M27.1168 120.324H26.0364C26.0364 120.324 22.0749 135.351 20.9945 137.318C19.9141 139.286 19.734 142.506 19.554 143.043C19.3739 143.579 18.6536 143.4 18.4735 144.653C18.2935 145.905 16.4928 147.515 15.0523 148.23C13.6117 148.946 7.12929 155.028 7.30935 155.207C7.48941 155.386 9.47016 161.647 10.7306 161.647C11.9911 161.647 17.033 155.565 17.5732 155.565C18.1134 155.565 20.4543 153.418 20.8144 153.239C21.1745 153.06 30.358 136.245 29.9979 132.131C29.6377 128.016 27.1168 120.324 27.1168 120.324Z" fill="#575A89"/>
<path d="M72.0463 166.669L74.2642 168.397C74.2642 168.397 82.1135 174.918 77.692 176.76C73.2704 178.602 70.6852 171.505 70.6852 171.505L67.5563 167.949L72.0463 166.669Z" fill="#FFB9B9"/>
<path d="M50.306 114.349C50.306 114.349 52.6869 115.495 53.7673 116.389C54.8477 117.284 63.1308 119.609 63.1308 120.325C63.1308 121.04 62.2305 132.131 62.2305 132.131L63.4909 151.808C63.4909 151.808 65.2916 173.99 65.6517 174.527C66.0119 175.063 66.5521 177.925 65.6517 177.925C64.7514 177.925 60.2497 172.917 60.4298 170.412C60.6099 167.908 61.8703 162.184 60.6098 160.753C59.3494 159.321 53.4071 135.351 53.4071 133.92C53.4071 132.489 50.8862 118.178 51.0663 117.82C51.2463 117.462 50.306 114.349 50.306 114.349Z" fill="#575A89"/>
<path d="M60.4295 120.145L63.1305 120.323L69.793 147.335C69.793 147.335 70.3332 150.734 70.5133 151.092C70.6933 151.449 73.3944 167.012 72.314 167.549C71.2335 168.086 67.6322 170.053 67.4521 168.801C67.2721 167.549 65.4714 160.573 63.6707 158.963C61.87 157.353 60.0694 129.625 60.0694 129.625L60.4295 120.145Z" fill="#575A89"/>
<path d="M49.6252 111.022C53.7025 111.022 57.0079 107.738 57.0079 103.688C57.0079 99.6372 53.7025 96.3535 49.6252 96.3535C45.5478 96.3535 42.2424 99.6372 42.2424 103.688C42.2424 107.738 45.5478 111.022 49.6252 111.022Z" fill="#FFB9B9"/>
<path d="M44.4729 104.224C44.9426 103.984 45.5608 104.21 45.9944 104.731C46.2237 103.641 46.7062 102.618 47.4034 101.746C48.1006 100.873 48.9932 100.174 50.0102 99.7043C51.0272 99.2346 52.1405 99.0073 53.2616 99.0403C54.3826 99.0734 55.4804 99.3659 56.4676 99.8947V99.1491C56.4676 97.5064 55.8107 95.9309 54.6414 94.7693C53.4721 93.6077 51.8862 92.9551 50.2326 92.9551H48.7339C47.1957 92.9551 45.6725 93.2561 44.2513 93.8409C42.8302 94.4257 41.5389 95.2828 40.4512 96.3634C39.3634 97.4439 38.5006 98.7268 37.912 100.139C37.3233 101.55 37.0203 103.064 37.0203 104.592V106.669C37.0201 108.596 37.5574 110.486 38.5726 112.128C39.5878 113.771 41.0411 115.102 42.7714 115.974L49.5138 112.428C48.5373 111.881 47.7025 111.116 47.076 110.192C46.4494 109.269 46.0483 108.213 45.9045 107.109C45.3339 107.357 44.5698 106.956 44.1723 106.187C43.7633 105.396 43.8979 104.517 44.4729 104.224Z" fill="#2F2E41"/>
</g>
<defs>
<clipPath id="clip0">
<rect y="0.794922" width="254" height="255.411" fill="white"/>
</clipPath>
</defs>
</svg>
