<svg width="24" height="24" viewBox="0 0 24 24" fill="none" xmlns="http://www.w3.org/2000/svg">
<g clip-path="url(#clip0)">
<path d="M1.49971 1.63231C-0.386289 3.59131 -0.000289023 5.67231 -0.000289023 11.9943C-0.000289023 17.2443 -0.916289 22.5073 3.87771 23.7463C5.37471 24.1313 18.6387 24.1313 20.1337 23.7443C22.1297 23.2293 23.7537 21.6103 23.9757 18.7873C24.0067 18.3933 24.0067 5.60231 23.9747 5.20031C23.7387 2.19331 21.8877 0.460314 19.4487 0.109314C18.8897 0.028314 18.7777 0.00431397 15.9097 -0.000686027C5.73671 0.00431397 3.50671 -0.448686 1.49971 1.63231Z" fill="url(#paint0_linear)"/>
<path d="M11.9978 3.13843C8.36681 3.13843 4.91881 2.81543 3.60181 6.19544C3.05781 7.59143 3.13681 9.40444 3.13681 12.0004C3.13681 14.2784 3.06381 16.4194 3.60181 17.8044C4.91581 21.1864 8.39181 20.8624 11.9958 20.8624C15.4728 20.8624 19.0578 21.2244 20.3908 17.8044C20.9358 16.3944 20.8558 14.6084 20.8558 12.0004C20.8558 8.53844 21.0468 6.30343 19.3678 4.62543C17.6678 2.92543 15.3688 3.13843 11.9938 3.13843H11.9978ZM11.2038 4.73544C18.7778 4.72344 19.7418 3.88144 19.2098 15.5784C19.0208 19.7154 15.8708 19.2614 11.9988 19.2614C4.93881 19.2614 4.73581 19.0594 4.73581 11.9964C4.73581 4.85144 5.29581 4.73944 11.2038 4.73344V4.73544ZM16.7278 6.20643C16.1408 6.20643 15.6648 6.68244 15.6648 7.26943C15.6648 7.85643 16.1408 8.33244 16.7278 8.33244C17.3148 8.33244 17.7908 7.85643 17.7908 7.26943C17.7908 6.68244 17.3148 6.20643 16.7278 6.20643ZM11.9978 7.44943C9.48481 7.44943 7.44781 9.48744 7.44781 12.0004C7.44781 14.5134 9.48481 16.5504 11.9978 16.5504C14.5108 16.5504 16.5468 14.5134 16.5468 12.0004C16.5468 9.48744 14.5108 7.44943 11.9978 7.44943ZM11.9978 9.04643C15.9028 9.04643 15.9078 14.9544 11.9978 14.9544C8.09381 14.9544 8.08781 9.04643 11.9978 9.04643Z" fill="white"/>
</g>
<defs>
<linearGradient id="paint0_linear" x1="1.54573" y1="22.4664" x2="23.8512" y2="3.16129" gradientUnits="userSpaceOnUse">
<stop stop-color="#FFDD55"/>
<stop offset="0.5" stop-color="#FF543E"/>
<stop offset="1" stop-color="#C837AB"/>
</linearGradient>
<clipPath id="clip0">
<path d="M0 0H24V24H0V0Z" fill="white"/>
</clipPath>
</defs>
</svg>
