<svg width="352" height="258" viewBox="0 0 352 258" fill="none" xmlns="http://www.w3.org/2000/svg">
<g clip-path="url(#clip0)">
<path d="M61.7029 0L43.3106 30.0073C48.278 33.2279 51.79 38.2565 53.0991 44.0228C54.4081 49.7891 53.4109 55.8377 50.3196 60.8812C47.2283 65.9246 42.2871 69.5646 36.5477 71.0264C30.8084 72.4881 24.7241 71.6562 19.5899 68.7077L0.0339966 100.613L188.696 215.831L250.365 115.218L61.7029 0Z" fill="#F2F2F2"/>
<path d="M33.6784 63.8216C41.8598 63.8216 48.4921 57.2014 48.4921 49.0348C48.4921 40.8683 41.8598 34.248 33.6784 34.248C25.4971 34.248 18.8648 40.8683 18.8648 49.0348C18.8648 57.2014 25.4971 63.8216 33.6784 63.8216Z" fill="#F2F2F2"/>
<path d="M171.135 247.109C200.056 247.109 223.5 245.569 223.5 243.67C223.5 241.771 200.056 240.231 171.135 240.231C142.215 240.231 118.771 241.771 118.771 243.67C118.771 245.569 142.215 247.109 171.135 247.109Z" fill="#F2F2F2"/>
<path d="M82.598 258.001C96.1067 258.001 107.058 257.281 107.058 256.394C107.058 255.507 96.1067 254.788 82.598 254.788C69.0892 254.788 58.1382 255.507 58.1382 256.394C58.1382 257.281 69.0892 258.001 82.598 258.001Z" fill="#F2F2F2"/>
<path d="M275.176 239.2C304.096 239.2 327.54 237.66 327.54 235.761C327.54 233.862 304.096 232.322 275.176 232.322C246.255 232.322 222.811 233.862 222.811 235.761C222.811 237.66 246.255 239.2 275.176 239.2Z" fill="#F2F2F2"/>
<path d="M2.32861 230.259H352" stroke="#2F2E41" stroke-width="2" stroke-miterlimit="10"/>
<path d="M314.621 60.5547H63.1335V230.087H314.621V60.5547Z" fill="#3F3D56"/>
<path d="M63.1335 72.9551H314.621" stroke="#2F2E41" stroke-width="2" stroke-miterlimit="10"/>
<path d="M70.8849 69.8392C72.5972 69.8392 73.9854 68.4536 73.9854 66.7443C73.9854 65.0351 72.5972 63.6494 70.8849 63.6494C69.1725 63.6494 67.7843 65.0351 67.7843 66.7443C67.7843 68.4536 69.1725 69.8392 70.8849 69.8392Z" fill="#FFC107"/>
<path d="M80.1865 70.0111C81.8989 70.0111 83.287 68.6255 83.287 66.9162C83.287 65.2069 81.8989 63.8213 80.1865 63.8213C78.4741 63.8213 77.0859 65.2069 77.0859 66.9162C77.0859 68.6255 78.4741 70.0111 80.1865 70.0111Z" fill="#FFC107"/>
<path d="M89.488 70.183C91.2004 70.183 92.5886 68.7973 92.5886 67.0881C92.5886 65.3788 91.2004 63.9932 89.488 63.9932C87.7757 63.9932 86.3875 65.3788 86.3875 67.0881C86.3875 68.7973 87.7757 70.183 89.488 70.183Z" fill="#FFC107"/>
<path opacity="0.3" d="M291.023 84.4541H78.8085V125.72H291.023V84.4541Z" fill="#FFC107"/>
<path opacity="0.3" d="M78.8085 125.72L291.023 84.4541" stroke="#FFC107" stroke-width="2" stroke-miterlimit="10"/>
<path opacity="0.3" d="M291.023 125.72L78.8085 84.4541" stroke="#FFC107" stroke-width="2" stroke-miterlimit="10"/>
<path opacity="0.3" d="M129.451 151.854H78.8085V218.223H129.451V151.854Z" fill="#FFC107"/>
<path opacity="0.3" d="M291.023 151.854H240.381V218.223H291.023V151.854Z" fill="#FFC107"/>
<path opacity="0.3" d="M210.237 151.854H159.595V218.223H210.237V151.854Z" fill="#FFC107"/>
<path opacity="0.3" d="M78.8085 151.854L129.451 218.223" stroke="#FFC107" stroke-width="2" stroke-miterlimit="10"/>
<path opacity="0.3" d="M129.451 151.854L78.8085 218.223" stroke="#FFC107" stroke-width="2" stroke-miterlimit="10"/>
<path opacity="0.3" d="M159.767 151.854L210.409 218.223" stroke="#FFC107" stroke-width="2" stroke-miterlimit="10"/>
<path opacity="0.3" d="M210.409 151.854L159.767 218.223" stroke="#FFC107" stroke-width="2" stroke-miterlimit="10"/>
<path opacity="0.3" d="M240.381 151.854L291.023 218.223" stroke="#FFC107" stroke-width="2" stroke-miterlimit="10"/>
<path opacity="0.3" d="M291.023 151.854L240.381 218.223" stroke="#FFC107" stroke-width="2" stroke-miterlimit="10"/>
<path d="M319.272 84.4541H107.058V125.72H319.272V84.4541Z" fill="#FFC107"/>
<path d="M300.669 167.673H250.027V234.041H300.669V167.673Z" fill="#FFC107"/>
<path d="M293.262 176.441H257.434V180.568H293.262V176.441Z" fill="#3F3D56"/>
<path d="M293.262 185.383H257.434V189.509H293.262V185.383Z" fill="#3F3D56"/>
<path d="M293.262 194.323H257.434V198.45H293.262V194.323Z" fill="#3F3D56"/>
<path d="M293.262 203.265H257.434V207.391H293.262V203.265Z" fill="#3F3D56"/>
<path d="M293.262 212.205H257.434V216.332H293.262V212.205Z" fill="#3F3D56"/>
<path d="M293.262 221.146H257.434V225.272H293.262V221.146Z" fill="#3F3D56"/>
<path d="M141.853 160.795H91.2106V227.164H141.853V160.795Z" fill="#FFC107"/>
<path d="M134.446 182.976H98.6174V187.102H134.446V182.976Z" fill="#3F3D56"/>
<path d="M134.446 191.916H98.6174V196.043H134.446V191.916Z" fill="#3F3D56"/>
<path d="M134.446 200.857H98.6174V204.984H134.446V200.857Z" fill="#3F3D56"/>
<path d="M223.443 108.653C223.443 116.38 218.842 119.078 213.165 119.078C213.034 119.078 212.902 119.076 212.771 119.073C212.508 119.068 212.248 119.055 211.99 119.038C206.867 118.676 202.887 115.839 202.887 108.653C202.887 101.217 212.407 91.8334 213.122 91.1389L213.124 91.1377C213.151 91.1108 213.165 91.0977 213.165 91.0977C213.165 91.0977 223.443 100.927 223.443 108.653Z" fill="#3F3D56"/>
<path d="M212.791 117.896L216.55 112.653L212.781 118.471L212.771 119.073C212.508 119.068 212.248 119.055 211.99 119.038L212.395 111.307L212.392 111.247L212.399 111.236L212.437 110.506L208.66 104.673L212.449 109.958L212.458 110.113L212.764 104.273L209.53 98.2453L212.804 103.248L213.123 91.1389L213.124 91.0977V91.1377L213.071 100.686L216.29 96.9008L213.057 101.509L212.972 106.738L215.979 101.719L212.96 107.508L212.912 110.415L217.277 103.43L212.896 111.429L212.791 117.896Z" fill="#FFC107"/>
<path d="M28.329 124.715C32.7874 124.715 36.4017 121.107 36.4017 116.657C36.4017 112.206 32.7874 108.599 28.329 108.599C23.8706 108.599 20.2563 112.206 20.2563 116.657C20.2563 121.107 23.8706 124.715 28.329 124.715Z" fill="#2F2E41"/>
<path d="M24.0786 122.021C24.0786 122.021 24.2002 126.995 23.714 127.117C23.2279 127.238 30.3985 129.179 30.3985 129.179L31.1278 122.385L24.0786 122.021Z" fill="#A0616A"/>
<path d="M80.7147 164.483C80.7147 164.483 86.0623 164.483 86.1839 163.876C86.3054 163.27 87.3993 168.85 87.3993 168.85L85.2116 169.578C85.2116 169.578 81.0793 167.758 80.7147 167.758C80.3501 167.758 80.7147 164.483 80.7147 164.483Z" fill="#A0616A"/>
<path d="M86.5487 166.666C86.5487 166.666 85.5764 163.391 84.361 163.269C84.361 163.269 88.4933 160.6 88.6148 159.751C88.7364 158.902 90.1948 156.718 90.8025 157.446C91.4102 158.174 91.4102 169.699 90.3163 170.912C89.2225 172.125 84.361 169.207 84.361 169.207C84.361 169.207 87.3994 167.879 86.5487 166.666Z" fill="#2F2E41"/>
<path d="M20.5543 213.13L19.5821 218.347L24.0789 219.075V213.13H20.5543Z" fill="#A0616A"/>
<path d="M20.554 217.74C20.554 217.74 19.8248 215.435 19.3386 215.799C18.8525 216.163 18.1232 218.468 18.2448 219.074C18.3663 219.681 19.2171 224.412 18.8525 225.261C18.4878 226.111 20.6755 230.478 23.4709 230.114C26.2662 229.75 26.0231 227.324 26.0231 227.324L25.0508 223.563L24.6862 217.618C24.6862 217.618 21.5263 217.133 20.554 217.74Z" fill="#2F2E41"/>
<path d="M25.5049 111.511C27.3498 111.511 28.8453 110.018 28.8453 108.176C28.8453 106.335 27.3498 104.842 25.5049 104.842C23.66 104.842 22.1645 106.335 22.1645 108.176C22.1645 110.018 23.66 111.511 25.5049 111.511Z" fill="#2F2E41"/>
<path d="M21.0512 106.37C21.0513 105.546 21.3571 104.751 21.9097 104.139C22.4623 103.527 23.2225 103.14 24.0437 103.054C23.9281 103.042 23.8119 103.036 23.6957 103.036C22.8098 103.036 21.9601 103.387 21.3337 104.013C20.7073 104.638 20.3553 105.486 20.3553 106.37C20.3553 107.255 20.7073 108.103 21.3337 108.728C21.9601 109.354 22.8098 109.705 23.6957 109.705C23.8119 109.705 23.9281 109.699 24.0437 109.687C23.2225 109.601 22.4623 109.214 21.9097 108.602C21.3571 107.99 21.0513 107.195 21.0512 106.37Z" fill="#2F2E41"/>
<path d="M28.3323 125.418C31.1515 125.418 33.4369 123.137 33.4369 120.323C33.4369 117.509 31.1515 115.228 28.3323 115.228C25.5132 115.228 23.2278 117.509 23.2278 120.323C23.2278 123.137 25.5132 125.418 28.3323 125.418Z" fill="#A0616A"/>
<path d="M18.2448 155.747C18.2448 155.747 18.4879 161.813 19.4602 164.967C20.4325 168.122 23.9378 190.585 23.2086 192.284C22.4794 193.982 18.7309 212.766 19.5817 213.858C20.4324 214.95 24.4432 214.586 24.4432 214.586L29.8931 191.798C29.8931 191.798 28.8185 166.666 37.8122 166.059C46.806 165.453 61.5119 165.089 61.5119 165.089C61.5119 165.089 70.9918 167.879 75.2456 167.758C79.4994 167.636 81.9301 168.85 81.9301 168.85L82.6593 163.876L63.8211 159.751C63.8211 159.751 46.5629 153.806 37.083 155.383C27.6031 156.961 18.2448 155.747 18.2448 155.747Z" fill="#2F2E41"/>
<path d="M25.0509 125.54C25.0509 125.54 23.5924 124.69 23.2278 125.54C22.8632 126.389 20.3109 127.117 19.3387 126.389C18.3664 125.661 15.9356 126.631 15.9356 126.631L13.2618 134.517C13.2618 134.517 14.5987 141.311 15.8141 145.071C17.0295 148.832 17.5156 156.597 17.0295 157.324C16.5433 158.052 26.7524 160.964 31.7354 159.144C36.7184 157.324 37.8123 155.262 37.8123 155.262C37.8123 155.262 32.3431 147.498 34.1662 143.858C35.9892 140.219 34.5308 136.094 34.5308 136.094L35.26 131.969L31.1277 129.664C31.1277 129.664 30.8847 127.481 29.9124 127.481C28.9401 127.481 25.0509 125.54 25.0509 125.54Z" fill="#D0CDE1"/>
<path d="M33.4371 132.091H35.2602C35.7659 132.563 36.1428 133.156 36.3554 133.814C36.5681 134.472 36.6094 135.173 36.4755 135.852C35.9894 138.157 33.7969 145.798 33.7969 145.798L31.9787 141.068L33.4371 132.091Z" fill="#D0CDE1"/>
<path d="M38.6719 151.574C38.6719 151.574 42.309 155.506 39.6352 157.568C36.9614 159.63 36.3026 152.837 36.3026 152.837L38.6719 151.574Z" fill="#A0616A"/>
<path d="M33.4369 143.373L34.2876 146.77L35.7461 149.439C35.7461 149.439 40.7291 152.714 40.7291 153.928C40.7291 153.928 38.5414 151.137 35.7461 153.928L33.2546 147.922L33.4369 143.373Z" fill="#D0CDE1"/>
<path d="M29.2681 118.283C32.3429 118.283 34.8354 116.79 34.8354 114.949C34.8354 113.107 32.3429 111.614 29.2681 111.614C26.1933 111.614 23.7007 113.107 23.7007 114.949C23.7007 116.79 26.1933 118.283 29.2681 118.283Z" fill="#2F2E41"/>
<path d="M18.2448 115.229C18.2448 115.229 22.134 113.045 23.7139 114.622C25.2939 116.199 18.974 118.625 18.974 118.625L18.2448 115.229Z" fill="#A0616A"/>
<path d="M16.7865 127.238L15.9357 126.631C15.9357 126.631 14.9634 125.175 14.1126 125.661C13.2619 126.146 8.27888 123.841 8.27888 123.841C8.27888 123.841 10.1019 124.69 10.1019 123.234C10.1019 121.778 10.345 122.021 11.5604 122.021C12.7757 122.021 12.7757 122.628 13.2619 121.779C13.748 120.929 13.5049 120.444 14.3557 120.929C15.2065 121.415 16.1788 121.051 16.4218 120.687C16.6649 120.323 21.0403 119.716 21.0403 119.716C21.0403 119.716 19.3388 114.742 18.9741 114.378C18.6095 114.014 9.2512 118.139 9.2512 118.139C9.2512 118.139 -2.53788 121.415 0.500542 125.175C3.53897 128.936 14.4773 134.638 14.4773 134.638L16.7865 127.238Z" fill="#D0CDE1"/>
<path d="M199.04 177.302H148.398V243.67H199.04V177.302Z" fill="#FFC107"/>
<path d="M185.088 187.79H162.351V210.486H185.088V187.79Z" fill="#3F3D56"/>
<path d="M193.7 215.3H153.738V218.051H193.7V215.3Z" fill="#3F3D56"/>
<path d="M193.7 222.865H153.738V225.616H193.7V222.865Z" fill="#3F3D56"/>
<path d="M193.7 230.431H153.738V233.182H193.7V230.431Z" fill="#3F3D56"/>
<path d="M90.478 249.321C90.478 254.335 87.492 256.086 83.8083 256.086C83.7229 256.086 83.6377 256.085 83.5526 256.083C83.3819 256.08 83.2129 256.072 83.0459 256.06C79.7213 255.825 77.1384 253.985 77.1384 249.321C77.1384 244.496 83.3165 238.406 83.7806 237.955L83.7814 237.955C83.7993 237.937 83.8082 237.929 83.8082 237.929C83.8082 237.929 90.478 244.307 90.478 249.321Z" fill="#FFC107"/>
<path d="M83.5653 255.319L86.0047 251.917L83.5592 255.693L83.5527 256.083C83.382 256.08 83.2129 256.072 83.0459 256.06L83.3088 251.044L83.3068 251.005L83.3113 250.997L83.336 250.524L80.8844 246.738L83.3438 250.168L83.3495 250.269L83.5482 246.479L81.4493 242.567L83.5738 245.813L83.7806 237.955L83.7814 237.929V237.955L83.7469 244.151L85.8365 241.695L83.7384 244.685L83.6831 248.078L85.6341 244.822L83.675 248.578L83.6441 250.464L86.4765 245.931L83.6335 251.123L83.5653 255.319Z" fill="#3F3D56"/>
</g>
<defs>
<clipPath id="clip0">
<rect width="352" height="258" fill="white"/>
</clipPath>
</defs>
</svg>
