<svg width="24" height="24" viewBox="0 0 24 24" fill="none" xmlns="http://www.w3.org/2000/svg">
<g clip-path="url(#clip0)">
<path d="M12.0008 0.00233361C5.51602 -0.125529 0.150017 5.01691 0.00195312 11.5012C0.0188733 14.802 1.48043 17.9298 4.00155 20.0603V23.5C4.00155 23.7761 4.2254 24 4.50151 24C4.59521 24 4.68703 23.9736 4.76647 23.924L7.5532 22.1832C8.973 22.7262 10.4807 23.0031 12.0008 23.0001C18.4855 23.128 23.8515 17.9855 23.9996 11.5012C23.8515 5.01691 18.4855 -0.125529 12.0008 0.00233361Z" fill="#2196F3"/>
<path d="M19.8997 8.20198C19.751 8.0026 19.4782 7.94293 19.2598 8.06198L14.0603 10.8967L10.8257 8.12296C10.6273 7.95291 10.3315 7.96421 10.1467 8.14897L4.14732 14.1484C3.95267 14.3442 3.95361 14.6608 4.14948 14.8554C4.30607 15.0111 4.54619 15.0456 4.74028 14.9403L9.93976 12.1056L13.1774 14.8803C13.3758 15.0504 13.6716 15.0391 13.8563 14.8543L19.8558 8.85489C20.0306 8.67842 20.0493 8.40034 19.8997 8.20198Z" fill="#FAFAFA"/>
</g>
<defs>
<clipPath id="clip0">
<path d="M0 0H24V24H0V0Z" fill="white"/>
</clipPath>
</defs>
</svg>
